<svg viewBox="0 0 48 48" xmlns="http://www.w3.org/2000/svg"><path transform="scale(.26458)" d="M81.381 0a90.708 91.254 0 0 0-24.568 6.096c.822 14.057 1.108 25.85-1.129 27.32-2.28 1.497-12.818-4.062-25.03-11.025a90.708 91.254 0 0 0-16.36 19.264c9.086 11.388 16.6 21.39 15.586 24.037-1.03 2.689-13.502 4.652-27.945 6.511A90.708 91.254 0 0 0 .001 90.71a90.708 91.254 0 0 0 .249 6.647c14.156 3.756 26.368 7.356 27.063 10.168.686 2.78-8.137 11.835-18.65 22.033a90.708 91.254 0 0 0 13.787 21.152c13.103-5.364 24.412-9.577 26.508-7.777 2.051 1.761.283 13.564-2.278 27.51a90.708 91.254 0 0 0 23.588 9.16c7.258-11.782 13.655-21.384 16.283-21.211 2.618.173 7.755 10.454 13.484 23.027a90.708 91.254 0 0 0 24.572-6.098c-.821-14.057-1.112-25.853 1.125-27.322 2.281-1.497 12.82 4.062 25.033 11.025a90.708 91.254 0 0 0 16.36-19.26c-9.086-11.388-16.6-21.394-15.587-24.04 1.03-2.69 13.502-4.65 27.943-6.509a90.708 91.254 0 0 0 1.938-18.506 90.708 91.254 0 0 0-.246-6.646c-14.158-3.757-26.37-7.36-27.064-10.172-.687-2.782 8.146-11.845 18.668-22.051a90.708 91.254 0 0 0-13.75-21.158c-13.128 5.375-24.463 9.607-26.562 7.804-2.054-1.763-.284-13.589 2.28-27.553a90.708 91.254 0 0 0-23.59-9.123C103.898 13.593 97.5 23.195 94.872 23.022 92.253 22.85 87.11 12.572 81.383 0zm9.328 49.135a41.575 41.575 0 0 1 41.574 41.574 41.575 41.575 0 0 1-41.574 41.574 41.575 41.575 0 0 1-41.574-41.574A41.575 41.575 0 0 1 90.71 49.135z" fill="#666" style="fill:#000;fill-opacity:1;stroke:none"/></svg>