<?xml version="1.0" encoding="UTF-8"?>
<svg viewBox="0 0 48 48"
   xmlns="http://www.w3.org/2000/svg">
   <path transform="scale(.26458)" d="m81.381 0a90.708 91.254 0 0 0-24.568 6.0957c0.82163 14.057 1.1084 25.851-1.1289 27.32-2.2809 1.4975-12.818-4.062-25.031-11.025a90.708 91.254 0 0 0-16.359 19.264c9.0856 11.388 16.599 21.391 15.586 24.037-1.0297 2.6891-13.502 4.6523-27.945 6.5117a90.708 91.254 0 0 0-1.9336 18.506 90.708 91.254 0 0 0 0.24805 6.6465c14.156 3.7562 26.368 7.3563 27.063 10.168 0.68646 2.7796-8.1368 11.835-18.65 22.033a90.708 91.254 0 0 0 13.787 21.152c13.103-5.3643 24.412-9.5773 26.508-7.7773 2.0519 1.7619 0.28373 13.564-2.2773 27.51a90.708 91.254 0 0 0 23.588 9.1602c7.2574-11.782 13.655-21.384 16.283-21.211 2.6181 0.17281 7.7552 10.454 13.484 23.027a90.708 91.254 0 0 0 24.572-6.0977c-0.82164-14.057-1.1124-25.853 1.125-27.322 2.2809-1.4975 12.82 4.062 25.033 11.025a90.708 91.254 0 0 0 16.359-19.26c-9.0856-11.388-16.599-21.394-15.586-24.041 1.0296-2.6889 13.502-4.6485 27.943-6.5078a90.708 91.254 0 0 0 1.9375-18.506 90.708 91.254 0 0 0-0.24609-6.6465c-14.158-3.7567-26.37-7.3599-27.064-10.172-0.68687-2.7813 8.1459-11.845 18.668-22.051a90.708 91.254 0 0 0-13.75-21.158c-13.128 5.3757-24.463 9.6073-26.562 7.8047-2.0538-1.7636-0.28388-13.589 2.2812-27.553a90.708 91.254 0 0 0-23.59-9.123c-7.2587 11.784-13.656 21.386-16.285 21.213-2.6181-0.17281-7.7591-10.451-13.488-23.023zm9.3281 49.135a41.575 41.575 0 0 1 41.574 41.574 41.575 41.575 0 0 1-41.574 41.574 41.575 41.575 0 0 1-41.574-41.574 41.575 41.575 0 0 1 41.574-41.574z" fill="#666" stroke-linecap="round" stroke-linejoin="round" stroke-width="2.9906"/>
</svg>
