<?xml version="1.0" encoding="UTF-8"?>
<svg viewBox="0 0 12.7 12.7"
   xmlns="http://www.w3.org/2000/svg">
   <defs>
      <clipPath id="a">
         <path d="m-2.2832-2.6296h18.098c1.9646 0 3.5462 2.8673 3.5462 6.429 0 3.5616-1.5816 6.429-3.5462 6.429h-18.098c-1.9646 0-3.5462-2.8673-3.5462-6.429 0-3.5616 1.5816-6.429 3.5462-6.429z" fill="#666" stroke-linecap="round" stroke-linejoin="bevel" stroke-width="1.4269" style="paint-order:fill markers stroke"/>
      </clipPath>
   </defs>
   <g clip-path="url(#a)">
      <path transform="scale(.26458)" d="m24 0c-13.255 0-24 10.745-24 24s10.745 24 24 24 24-10.745 24-24-10.745-24-24-24zm7.791 1.7207c0.11142-9.359e-4 0.22415 0.019234 0.33398 0.064453l1.668 0.6875c0.43934 0.18088 0.64768 0.6798 0.4668 1.1191l-7.6152 18.496c0.40239 0.55637 0.61905 1.2255 0.61914 1.9121 5.6e-5 1.8025-1.4612 3.2637-3.2637 3.2637-1.8025 5.6e-5 -3.2637-1.4612-3.2637-3.2637 0.0013-1.5582 1.104-2.8981 2.6328-3.1992l7.6367-18.549c0.13566-0.32951 0.4509-0.52844 0.78516-0.53125zm-8.4219 19.08c-15.579-13.867-7.7897-6.9336 0 0zm0.44336-17.564c0.75933-0.00755 1.3753 0.59809 1.3828 1.3574l0.03906 3.7852c0.0075 0.75933-0.59809 1.3772-1.3574 1.3848-0.75933 0.0075497-1.3772-0.59809-1.3848-1.3574l-0.03711-3.7852c-0.00755-0.75933 0.59809-1.3772 1.3574-1.3848zm-14.127 6.5469c0.32856 6.179e-4 0.65887 0.11952 0.92188 0.35937l2.7969 2.5508c0.56109 0.51168 0.60153 1.3745 0.08984 1.9355-0.51168 0.56109-1.3764 0.60153-1.9375 0.08984l-2.7969-2.5508c-0.56109-0.51168-0.60153-1.3764-0.089844-1.9375 0.27183-0.29808 0.64326-0.44797 1.0156-0.44727zm28.629 0.23633c0.37236-7e-4 0.74379 0.14919 1.0156 0.44727 0.51168 0.56109 0.47124 1.4258-0.08984 1.9375l-2.7969 2.5508c-0.56109 0.51168-1.4258 0.47124-1.9375-0.08984-0.51168-0.56109-0.47124-1.4239 0.08984-1.9355l2.7969-2.5508c0.26301-0.23985 0.59332-0.35876 0.92188-0.35938zm-33.707 12.592h3.7852c0.75937 0 1.3711 0.61173 1.3711 1.3711s-0.61173 1.3691-1.3711 1.3691h-3.7852c-0.75937 0-1.3711-0.60977-1.3711-1.3691s0.61173-1.3711 1.3711-1.3711zm35 0.23633h3.7852c0.75937 0 1.3711 0.60977 1.3711 1.3691s-0.61173 1.3711-1.3711 1.3711h-3.7852c-0.75937 0-1.3711-0.61173-1.3711-1.3711s0.61173-1.3691 1.3711-1.3691z" fill="#666" stroke-linecap="round" stroke-linejoin="bevel" stroke-width="4" style="paint-order:fill markers stroke"/>
   </g>
</svg>
