<svg viewBox="0 0 12.7 12.7" xmlns="http://www.w3.org/2000/svg"><path style="color:#000;fill:#000;-inkscape-stroke:none;stroke:none;fill-opacity:1" d="M6.64 0a.53.53 0 0 0-.529.53.53.53 0 0 0 .53.529h5.002v10.584H6.447a.53.53 0 0 0-.529.529.53.53 0 0 0 .53.53h5.724a.53.53 0 0 0 .527-.53V.529A.53.53 0 0 0 12.172 0z"/><path style="color:#000;fill:#000;fill-opacity:1;stroke:none;stroke-width:1;-inkscape-stroke:none" d="M5.104 3.813a.53.53 0 0 0-.478.225.53.53 0 0 0 .134.737l1.536 1.06H.516A.516.516 0 0 0 0 6.35a.516.516 0 0 0 .517.515h5.779L4.76 7.925a.53.53 0 0 0-.22.34.53.53 0 0 0 .086.396.53.53 0 0 0 .735.134l2.914-2.009a.53.53 0 0 0 .037-.029.53.53 0 0 0 .006-.003.53.53 0 0 0 .005-.006.53.53 0 0 0 .082-.093.53.53 0 0 0 .004-.005.53.53 0 0 0 .021-.032.53.53 0 0 0 .004-.007.53.53 0 0 0 .018-.034.53.53 0 0 0 .003-.007.53.53 0 0 0 .015-.036.53.53 0 0 0 .014-.045.53.53 0 0 0 .002-.005.53.53 0 0 0 .009-.04.53.53 0 0 0 .002-.005.53.53 0 0 0 .005-.04.53.53 0 0 0 0-.006.53.53 0 0 0 .002-.04.53.53 0 0 0 0-.007.53.53 0 0 0-.002-.04.53.53 0 0 0 0-.006.53.53 0 0 0-.005-.04.53.53 0 0 0-.002-.005.53.53 0 0 0-.01-.04.53.53 0 0 0 0-.005.53.53 0 0 0-.015-.044.53.53 0 0 0-.015-.036.53.53 0 0 0-.003-.007.53.53 0 0 0-.018-.034.53.53 0 0 0-.004-.007.53.53 0 0 0-.021-.032.53.53 0 0 0-.004-.006.53.53 0 0 0-.082-.093.53.53 0 0 0-.005-.005.53.53 0 0 0-.006-.004.53.53 0 0 0-.037-.028L5.36 3.904a.53.53 0 0 0-.257-.09z"/></svg>