<?xml version="1.0" encoding="UTF-8"?>
<svg viewBox="0 0 12.7 12.7"
   xmlns="http://www.w3.org/2000/svg">
   <g fill="#555">
      <path transform="matrix(.9834 -.18147 .20143 .9795 0 0)" d="m1.4349 11.817a1.8771 0.93836 0 0 1-1.8771 0.93836 1.8771 0.93836 0 0 1-1.8771-0.93836 1.8771 0.93836 0 0 1 1.8771-0.93836 1.8771 0.93836 0 0 1 1.8771 0.93836z" stroke-linecap="round" stroke-linejoin="bevel" stroke-width="1.3916" style="paint-order:fill markers stroke"/>
      <path d="m3.2197 3.6167h0.34377c0.1322 0 0.23863 0.10643 0.23863 0.23863v7.5189c0 0.1322-0.10643 0.23863-0.23863 0.23863h-0.34377c-0.1322 0-0.23863-0.10643-0.23863-0.23863v-7.5189c0-0.1322 0.10643-0.23863 0.23863-0.23863z" stroke-linecap="round" stroke-linejoin="bevel" stroke-width="1.0853" style="paint-order:markers fill stroke"/>
      <path transform="matrix(.9834 -.18147 .20143 .9795 0 0)" d="m10.523 10.944a1.8771 0.93836 0 0 1-1.8771 0.93836 1.8771 0.93836 0 0 1-1.8771-0.93836 1.8771 0.93836 0 0 1 1.8771-0.93836 1.8771 0.93836 0 0 1 1.8771 0.93836z" stroke-linecap="round" stroke-linejoin="bevel" stroke-width="1.3916" style="paint-order:fill markers stroke"/>
      <path d="m11.976 1.2033h0.3491c0.13073 0 0.23597 0.10524 0.23597 0.23597v7.435c0 0.13073-0.10524 0.23597-0.23597 0.23597h-0.3491c-0.13073 0-0.23597-0.10524-0.23597-0.23597v-7.435c0-0.13073 0.10524-0.23597 0.23597-0.23597z" stroke-linecap="round" stroke-linejoin="bevel" stroke-width="1.0792" style="paint-order:markers fill stroke"/>
      <g stroke="#666">
         <g transform="matrix(.96958 0 0 1 .23138 0)" fill="#666" stroke="#666" stroke-linecap="round" stroke-linejoin="bevel" stroke-width=".3">
            <path d="m12.567 1.5067-0.001878-1.3639"/>
            <path d="m2.9852 4.0115-0.001878-1.3639"/>
            <path d="m2.9833 2.6476 9.5821-2.5048"/>
            <path d="m12.567 1.5067-9.5821 2.5048"/>
         </g>
      </g>
      <path d="m12.237 0.053546c-0.58718 0.13968-1.1679 0.31128-1.7524 0.4637-2.4204 0.65214-4.8401 1.3067-7.2604 1.9593-0.16464 0.046393-0.21666 0.22716-0.19632 0.38064 0.0093 0.33495-0.020457 0.67411 0.024425 1.0064 0.053838 0.16219 0.247 0.2207 0.39584 0.15683 2.9617-0.79247 5.9232-1.5871 8.88-2.3973 0.2132-0.063532 0.20977-0.32072 0.21767-0.5018 0.0024-0.28561 0.02105-0.57531-0.02054-0.85837-0.03293-0.12655-0.15747-0.21876-0.28828-0.20944z" stroke="#666" stroke-linecap="round" stroke-linejoin="bevel" stroke-width=".020219" style="paint-order:normal"/>
   </g>
</svg>
