<svg viewBox="0 0 12.7 12.7" xmlns="http://www.w3.org/2000/svg"><path style="color:#000;fill:#000;stroke:none;stroke-width:.262717;-inkscape-stroke:none" d="M5.399 1.948c-.12 0-.24.055-.347.164-.611.663-1.12 1.213-1.55 1.7H1.018a.887.887 0 0 0-.887.887v3.3c0 .489.397.886.887.886h2.393c.444.483.98 1.032 1.631 1.7.46.473 1.038-.113 1.039-1.054l.008-6.357c0-.436-.13-.841-.344-1.06a.49.49 0 0 0-.346-.166z"/><path style="color:#000;fill:#000;stroke:none;-inkscape-stroke:none" d="M10.19 2.121a.5.5 0 0 0-.137.057.5.5 0 0 0-.147.031.5.5 0 0 0-.006.031.5.5 0 0 0-.091.092.5.5 0 0 0-.03.006L7.77 5.25a.5.5 0 0 0 .127.695.5.5 0 0 0 .696-.127l1.097-1.59v5.85a.5.5 0 0 0 .5.5.5.5 0 0 0 .5-.5V4.225l1.1 1.593a.5.5 0 0 0 .695.127.5.5 0 0 0 .127-.695l-2.002-2.9-.007-.012a.5.5 0 0 0-.01-.006.5.5 0 0 0-.02-.021.5.5 0 0 0-.062-.065.5.5 0 0 0-.035-.037.5.5 0 0 0-.016.002.5.5 0 0 0-.154-.066.5.5 0 0 0-.05-.01.5.5 0 0 0-.066-.014z"/></svg>