<?xml version="1.0" encoding="UTF-8"?>
<svg version="1.1" viewBox="0 0 48 48"
   xmlns="http://www.w3.org/2000/svg">
   <g transform="matrix(1.4714 0 0 1.4714 -199.74 -222.21)">
      <path d="m151.53 181.42c-0.88998-0.11242-1.7196-0.53285-2.3629-1.1975-0.70672-0.73013-1.0844-1.5947-1.1365-2.6014-0.10034-1.9403 1.1956-3.6482 3.1275-4.1217 0.25808-0.0632 0.39517-0.0756 0.85699-0.0772 0.73961-3e-3 1.2335 0.10355 1.7918 0.38468 1.3699 0.68989 2.1972 1.9595 2.2558 3.4618 0.0584 1.4961-0.6769 2.843-1.9822 3.6311-0.72803 0.43958-1.6689 0.63141-2.5505 0.52005zm-4.1717-9.0202c-0.17784-0.0883-1.7437-1.6542-1.8286-1.8286-0.0562-0.11564-0.0632-0.18498-0.0538-0.5336 9e-3 -0.33066 0.0227-0.42362 0.079-0.53195 0.0792-0.15237 0.69929-0.76002 1.142-1.1192 0.9735-0.78966 2.253-1.4116 3.4748-1.689 0.67425-0.15306 1.0747-0.19417 1.8918-0.19417s1.2176 0.0411 1.8918 0.19417c1.2217 0.27735 2.5004 0.89883 3.475 1.689 0.50002 0.40537 1.0867 0.9899 1.1485 1.1442 0.0686 0.17147 0.0989 0.82861 0.0457 0.99366-0.0512 0.15892-1.6619 1.7831-1.8614 1.8768-0.18063 0.0849-0.49354 0.087-0.67517 5e-3 -0.0773-0.0351-0.21654-0.1559-0.33957-0.29459-0.28553-0.32189-0.73229-0.6877-1.1385-0.93221-1.8082-1.0883-4.0995-0.908-5.7277 0.45076-0.16236 0.13551-0.38905 0.35215-0.50374 0.48145-0.12303 0.13869-0.26224 0.25947-0.33955 0.29459-0.18055 0.082-0.50945 0.0792-0.68081-6e-3zm-4.7053-4.6824c-0.16939-0.0859-1.8323-1.7651-1.8744-1.8928-0.0194-0.0587-0.0298-0.2731-0.0238-0.49057 8e-3 -0.31468 0.0231-0.41034 0.078-0.5161 0.13045-0.25095 1.3204-1.3548 2.098-1.9461 1.2404-0.94334 2.918-1.8175 4.4193-2.3029 3.3776-1.092 7.0612-0.97537 10.324 0.32681 1.211 0.48326 2.5384 1.228 3.5221 1.9761 0.77762 0.59137 1.9676 1.6952 2.098 1.9461 0.0549 0.10576 0.0694 0.20142 0.078 0.5161 6e-3 0.21799-5e-3 0.43183-0.0239 0.49082-0.0455 0.13807-1.7422 1.84-1.9 1.9059-0.14703 0.0614-0.45859 0.0594-0.61704-4e-3 -0.085-0.034-0.23409-0.16608-0.45427-0.40243-1.1582-1.2433-2.8377-2.3073-4.5708-2.8959-1.2604-0.42805-2.3726-0.609-3.7429-0.609s-2.4825 0.18095-3.7429 0.609c-1.7331 0.58859-3.4126 1.6526-4.5709 2.8959-0.22018 0.23635-0.36926 0.36843-0.45427 0.40243-0.17077 0.0683-0.49886 0.0635-0.64264-9e-3zm-4.7377-4.7573c-0.18768-0.0854-1.7734-1.6911-1.8233-1.8463-0.0222-0.069-0.0328-0.26949-0.0264-0.50126 8e-3 -0.31441 0.0231-0.41035 0.0779-0.51564 0.0995-0.19126 1.1228-1.1758 1.8851-1.8137 3.1354-2.6239 6.8919-4.3051 10.898-4.8775 1.227-0.17531 1.5632-0.19636 3.1369-0.19636s1.9098 0.0211 3.1369 0.19636c4.0063 0.57239 7.7628 2.2536 10.898 4.8775 0.7623 0.63793 1.7856 1.6225 1.8851 1.8137 0.0548 0.10529 0.0693 0.20123 0.0779 0.51564 6e-3 0.23177-5e-3 0.43227-0.0264 0.50126-0.0533 0.16554-1.6382 1.7629-1.8341 1.8485-0.18774 0.0821-0.49382 0.0803-0.67935-4e-3 -0.0898-0.0407-0.32897-0.2481-0.66296-0.57467-1.4201-1.3885-2.8197-2.3949-4.5488-3.2709-2.1392-1.0837-4.2578-1.6811-6.7912-1.9151-0.94584-0.0873-2.6441-0.0471-3.7352 0.0885-2.084 0.25911-4.0766 0.86908-5.9666 1.8265-1.7291 0.87594-3.1287 1.8824-4.5488 3.2709-0.33399 0.32656-0.57325 0.53396-0.66295 0.57466-0.18229 0.0827-0.51031 0.0835-0.69012 2e-3z"/>
   </g>
</svg>
