<?xml version="1.0" encoding="UTF-8"?>
<svg viewBox="0 0 12.7 12.7"
   xmlns="http://www.w3.org/2000/svg">
   <defs>
      <clipPath id="a">
         <path d="m-2.2832-2.6296h18.098c1.9646 0 3.5462 2.8673 3.5462 6.429 0 3.5616-1.5816 6.429-3.5462 6.429h-18.098c-1.9646 0-3.5462-2.8673-3.5462-6.429 0-3.5616 1.5816-6.429 3.5462-6.429z" fill="#666" stroke-linecap="round" stroke-linejoin="bevel" stroke-width="1.4269" style="paint-order:fill markers stroke"/>
      </clipPath>
   </defs>
   <g clip-path="url(#a)">
      <path transform="scale(.26458)" d="m0.90234 7.832c-0.49966 0-0.90234 0.40268-0.90234 0.90234v27.961c7.4015e-17 0.49966 0.40268 0.90039 0.90234 0.90039h46.195c0.49966 0 0.90234-0.40073 0.90234-0.90039v-27.961c0-0.49966-0.40268-0.90234-0.90234-0.90234h-46.195zm17.584 3.8691 16.465 11.465-8.1934 5.0547-8.1953 5.0566-0.037109-10.789-0.039063-10.787z" fill="#666" stroke-linecap="round" stroke-linejoin="bevel" stroke-width="4" style="paint-order:fill markers stroke"/>
   </g>
</svg>
