<?xml version="1.0" encoding="UTF-8" standalone="no"?>
<svg xmlns="http://www.w3.org/2000/svg" viewBox="0 0 210 210">
   <path
      style="fill:#fff2e6;fill-opacity:1;stroke:none;stroke-width:.32064998;stroke-linecap:square;stroke-linejoin:miter;stroke-miterlimit:0;stroke-dasharray:none;stroke-opacity:1;paint-order:markers stroke fill"
      d="m49 135 28-1h26M71 265l27-25m5 42-5-42m44 34-44-34m73 0-39-3m37-23-28 5m18-37-19 28m4-40-50 61m16-73-63 59m4-119-2 37 9 17 16 33 18-33 11-18-2-35-24 35zm7 54-11 65 47 14 33-7 13-14 1 9-9 18-34 3-26-9-1 16v18l13 14 19 3 18-1 21-7 15-17 14-17-2-26-5-14-5-18-15-12-35-13-17-5"
      transform="translate(0 -87)" />
   <path
      style="opacity:1;fill:#fe6305;fill-opacity:1;fill-rule:nonzero;stroke:none;stroke-width:2.07428575;stroke-linecap:square;stroke-linejoin:miter;stroke-miterlimit:0;stroke-dasharray:none;stroke-opacity:1;paint-order:markers stroke fill"
      d="m77 134 24-35 2 35-15 6zM51 98l26 36-14 5-14-4z" transform="translate(0 -87)" />
   <path
      style="opacity:1;fill:#ff7316;fill-opacity:1;fill-rule:nonzero;stroke:none;stroke-width:.1619527;stroke-linecap:square;stroke-linejoin:miter;stroke-miterlimit:0;stroke-dasharray:none;stroke-opacity:1;paint-order:markers stroke fill"
      d="m110 158-63 59 47 14 36-30 14-31-33-13v1z" transform="translate(0 -87)" />
   <path
      style="opacity:1;fill:#ff7316;fill-opacity:1;fill-rule:nonzero;stroke:none;stroke-width:2.07428575;stroke-linecap:square;stroke-linejoin:miter;stroke-miterlimit:0;stroke-dasharray:none;stroke-opacity:1;paint-order:markers stroke fill"
      d="m84 279-13-14 27-25 6 23-1 19zM98 240l34-3h18l21 3-29 34z" transform="translate(0 -87)" />
   <path
      style="opacity:1;fill:#fe6305;fill-opacity:1;fill-rule:nonzero;stroke:none;stroke-width:2.07428575;stroke-linecap:square;stroke-linejoin:miter;stroke-miterlimit:0;stroke-dasharray:none;stroke-opacity:1;paint-order:markers stroke fill"
      d="m132 237 9-18 14-4 14-1 1 15 1 11z" transform="translate(0 -87)" />
   <path
      style="opacity:1;fill:#ff7316;fill-opacity:1;fill-rule:nonzero;stroke:none;stroke-width:2.07428575;stroke-linecap:square;stroke-linejoin:miter;stroke-miterlimit:0;stroke-dasharray:none;stroke-opacity:1;paint-order:markers stroke fill"
      d="m140 210 19-28 10 32-28 5z" transform="translate(0 -87)" />
   <path
      style="opacity:1;fill:#fe6305;fill-opacity:1;fill-rule:nonzero;stroke:none;stroke-width:2.07428575;stroke-linecap:square;stroke-linejoin:miter;stroke-miterlimit:0;stroke-dasharray:none;stroke-opacity:1;paint-order:markers stroke fill"
      d="m103 282-5-42 24 18 20 16-21 7zM144 170l15 12-15 25-17 17-33 7z" transform="translate(0 -87)" />
   <path
      style="opacity:1;fill:#ff7316;fill-opacity:1;fill-rule:nonzero;stroke:none;stroke-width:.1619527;stroke-linecap:square;stroke-linejoin:miter;stroke-miterlimit:0;stroke-dasharray:none;stroke-opacity:1;paint-order:markers stroke fill"
      d="m49 135 25 50 29-51-54 1z" transform="translate(0 -87)" />
</svg>