<?xml version="1.0" encoding="UTF-8" standalone="no"?>
<!-- Created with Inkscape (http://www.inkscape.org/) -->

<svg
   xmlns:dc="http://purl.org/dc/elements/1.1/"
   xmlns:cc="http://creativecommons.org/ns#"
   xmlns:rdf="http://www.w3.org/1999/02/22-rdf-syntax-ns#"
   xmlns:svg="http://www.w3.org/2000/svg"
   xmlns="http://www.w3.org/2000/svg"
   xmlns:sodipodi="http://sodipodi.sourceforge.net/DTD/sodipodi-0.dtd"
   xmlns:inkscape="http://www.inkscape.org/namespaces/inkscape"
   width="160.00005mm"
   height="160.00005mm"
   viewBox="0 0 160.00005 160.00005"
   version="1.1"
   id="svg8"
   inkscape:version="0.92.3 (2405546, 2018-03-11)"
   sodipodi:docname="icon.svg">
  <defs
     id="defs2" />
  <sodipodi:namedview
     id="base"
     pagecolor="#ffffff"
     bordercolor="#666666"
     borderopacity="1.0"
     inkscape:pageopacity="0"
     inkscape:pageshadow="2"
     inkscape:zoom="0.7"
     inkscape:cx="141.75245"
     inkscape:cy="379.56856"
     inkscape:document-units="mm"
     inkscape:current-layer="layer1"
     showgrid="false"
     inkscape:window-width="1920"
     inkscape:window-height="1001"
     inkscape:window-x="-9"
     inkscape:window-y="-9"
     inkscape:window-maximized="1"
     fit-margin-top="0"
     fit-margin-left="0"
     fit-margin-right="0"
     fit-margin-bottom="0"
     inkscape:pagecheckerboard="false" />
  <metadata
     id="metadata5">
    <rdf:RDF>
      <cc:Work
         rdf:about="">
        <dc:format>image/svg+xml</dc:format>
        <dc:type
           rdf:resource="http://purl.org/dc/dcmitype/StillImage" />
        <dc:title></dc:title>
      </cc:Work>
    </rdf:RDF>
  </metadata>
  <g
     inkscape:label="Layer 1"
     inkscape:groupmode="layer"
     id="layer1"
     transform="translate(-32.000113,-39.000202)">
    <path
       style="opacity:1;fill:#471f00;fill-opacity:1;stroke:#471f00;stroke-width:1;stroke-miterlimit:4;stroke-dasharray:none;stroke-opacity:1"
       d="m 533.43606,546.68349 -63.24425,-47.05251 1.62495,-1.18941 c 2.8147,-2.06028 10.95285,-10.3773 13.4009,-13.69544 1.49176,-2.02197 2.00429,-3.73265 2.49053,-3.59853 0.55177,0.15219 129.43851,80.27361 130.3056,81.00083 0.68117,0.57128 -19.62498,32.10979 -20.67717,32.09684 -0.18735,-0.003 -29.11622,-21.6829 -63.90056,-47.56178 z"
       id="path4794"
       inkscape:connector-curvature="0"
       transform="scale(0.26458333)"
       sodipodi:nodetypes="sccccccs" />
    <path
       style="fill:none;stroke:#471f00;stroke-width:0.27028897px;stroke-linecap:butt;stroke-linejoin:miter;stroke-opacity:1"
       d="m 123.7243,131.93984 36.25732,26.97033"
       id="path3746"
       inkscape:connector-curvature="0"
       sodipodi:nodetypes="cc" />
    <path
       style="opacity:1;fill:#471f00;fill-opacity:1;stroke:#471f00;stroke-width:1;stroke-miterlimit:4;stroke-dasharray:none;stroke-opacity:1"
       d="m 269.60088,417.75595 c -39.08929,-9.02045 -71.13716,-16.45728 -71.2175,-16.5263 -0.16913,-0.1453 0.89491,-4.11321 2.81789,-10.5082 3.7795,-12.56898 12.12029,-33.0745 13.28832,-32.66884 0.25764,0.0895 30.65199,10.11555 67.54301,22.28015 36.89101,12.1646 67.40922,22.04172 67.50957,22.14207 0.10035,0.10035 -0.79772,1.60142 -1.68705,3.14279 -3.85646,6.68391 -6.23431,15.2507 -6.92709,24.95653 l -0.25573,3.58262 z"
       id="path4786"
       inkscape:connector-curvature="0"
       transform="scale(0.26458333)"
       sodipodi:nodetypes="scscsscccs" />
    <path
       style="opacity:1;fill:#471f00;fill-opacity:1;stroke:#471f00;stroke-width:1;stroke-miterlimit:4;stroke-dasharray:none;stroke-opacity:1"
       d="m 236.23021,591.78234 c -4.73376,-6.19922 -21.53085,-31.19343 -20.51592,-32.11979 0.2844,-0.25957 31.48695,-17.34598 67.82623,-38.45343 36.33929,-21.10744 67.06084,-38.97518 68.27011,-39.70609 l 2.19868,-1.32892 4.64526,5.91017 c 2.55488,3.25059 6.76709,7.66231 9.36045,9.80382 2.59337,2.14151 5.26581,4.05437 5.27322,4.2508 0.0156,0.41262 -132.6192,96.89325 -133.7141,97.25822 -0.39993,0.13331 1.38983,0.58444 -3.34393,-5.61478 z"
       id="path4788"
       inkscape:connector-curvature="0"
       transform="scale(0.26458333)"
       sodipodi:nodetypes="zcsccccccz" />
    <path
       style="opacity:1;fill:#471f00;fill-opacity:1;stroke:#471f00;stroke-width:1;stroke-miterlimit:4;stroke-dasharray:none;stroke-opacity:1"
       d="m 501.39767,425.30311 c 0,-3.11456 -2.68662,-12.01 -5.02835,-16.64895 -1.17429,-2.32625 -2.61258,-4.05593 -2.40526,-4.05593 0.42659,0 131.43731,-33.51855 133.27422,-34.09237 0,0 0.2012,1.48231 1.86419,5.85484 3.25195,8.55038 5.71665,16.35969 7.9796,25.28307 1.88353,7.42725 2.45504,9.22928 2.45504,9.22928 -0.94706,0.39604 -135.57436,16.4389 -137.60373,16.41501 -0.29464,-0.003 -0.53571,-0.89669 -0.53571,-1.98495 z"
       id="path4792"
       inkscape:connector-curvature="0"
       transform="scale(0.26458333)"
       sodipodi:nodetypes="scsccsccs" />
    <g
       id="g4656"
       style="fill:#43604a;fill-opacity:1">
      <path
         inkscape:connector-curvature="0"
         id="path3742"
         d="M 94.116071,126.53274 57.074405,148.07738"
         style="fill:#471f00;fill-opacity:1;stroke:#471f00;stroke-width:0.26458332px;stroke-linecap:butt;stroke-linejoin:miter;stroke-opacity:1" />
      <path
         sodipodi:nodetypes="cc"
         inkscape:connector-curvature="0"
         id="path3744"
         d="M 99.785714,131.8244 63.387325,158.06132"
         style="fill:#43604a;fill-opacity:1;stroke:#471f00;stroke-width:0.26458332px;stroke-linecap:butt;stroke-linejoin:miter;stroke-opacity:1" />
      <path
         inkscape:connector-curvature="0"
         id="path3740"
         d="m 132.66964,113.30357 36.66369,-4.53572"
         style="fill:#43604a;fill-opacity:1;stroke:#471f00;stroke-width:0.26458332px;stroke-linecap:butt;stroke-linejoin:miter;stroke-opacity:1" />
      <path
         inkscape:connector-curvature="0"
         id="path3736"
         d="m 130.26815,106.94676 35.68864,-8.917086"
         style="fill:#43604a;fill-opacity:1;stroke:#471f00;stroke-width:0.26458332px;stroke-linecap:butt;stroke-linejoin:miter;stroke-opacity:1"
         sodipodi:nodetypes="cc" />
      <path
         inkscape:connector-curvature="0"
         id="path3738"
         d="m 51.878184,106.22017 38.835148,8.96963"
         style="fill:#471f00;fill-opacity:1;stroke:#471f00;stroke-width:0.27106488px;stroke-linecap:butt;stroke-linejoin:miter;stroke-opacity:1" />
      <path
         sodipodi:nodetypes="cc"
         inkscape:connector-curvature="0"
         id="path3748"
         d="m 129.07887,127.0997 34.96279,21.73363"
         style="fill:#43604a;fill-opacity:1;stroke:#471f00;stroke-width:0.26458332px;stroke-linecap:butt;stroke-linejoin:miter;stroke-opacity:1" />
      <g
         id="g4645"
         style="fill:#43604a;fill-opacity:1;stroke:#43604a;stroke-opacity:1">
        <path
           style="fill:#3139f7;fill-opacity:1;stroke:#471f00;stroke-width:0.26458332px;stroke-linecap:butt;stroke-linejoin:miter;stroke-opacity:1"
           d="M 92.982141,106.5 56.318451,94.404761"
           id="path3734"
           inkscape:connector-curvature="0"
           clip-path="none" />
        <path
           style="fill:#43604a;fill-opacity:1;stroke:#43604a;stroke-width:0.26458332;stroke-opacity:1"
           d="m 132.66963,115.19346 c 0,11.69002 -9.47664,21.16666 -21.16666,21.16666 -11.690025,0 -21.166665,-9.47663 -21.166668,-21.16666 -10e-7,-11.69003 9.209369,-15.687644 20.899398,-15.687642 11.69003,3e-6 21.43393,3.997622 21.43393,15.687642 z"
           id="path3730"
           clip-path="none"
           inkscape:connector-curvature="0"
           sodipodi:nodetypes="ssszs" />
      </g>
    </g>
    <path
       style="fill:#43604a;fill-opacity:1;stroke-width:0.9995786"
       d="m 423.30664,147.40234 c -166.98935,4.8e-4 -302.36085,135.37198 -302.36133,302.36133 -6e-4,166.99011 135.37122,302.3628 302.36133,302.36328 166.99088,6e-4 302.36388,-135.3724 302.36328,-302.36328 C 725.66944,282.77356 590.29675,147.40174 423.30664,147.40234 Z m -5.58984,82.60938 c 61.17852,0.006 119.75917,24.7309 162.4414,68.56055 0.1362,0.1399 0.27431,0.27772 0.41016,0.41796 19.55078,20.28118 35.15163,44.02753 46.00391,70.02344 0.66601,1.49219 0.024,1.06355 0.66601,1.49219 5.34539,13.04421 9.46282,26.55844 12.29883,40.36719 -0.2603,0.23905 -0.71953,0.24673 -1.37305,0.3457 l -1.96679,0.29883 1.91601,0.10547 c 0.78799,0.044 1.30923,0.10985 1.7168,0.55664 2.64456,13.00447 4.1425,26.21598 4.47656,39.48242 0.026,3.24238 -0.004,6.68861 -0.082,10.39062 -0.80709,34.3845 -16.99542,83.18768 -25.20117,98.69727 -8.20575,15.50959 4.96182,-9.58013 -0.60346,1.25002 -5.56528,10.83015 -25.38747,40.48805 -42.46875,57.19727 -0.19571,0.17975 -0.49512,0.47208 -0.71094,0.67382 -42.2706,40.83986 -98.74675,63.67205 -157.52343,63.6836 -59.73839,-0.0668 -117.03752,-23.70293 -159.44922,-65.77344 -1.62089,-1.58791 -3.18963,-3.15411 -4.70899,-4.69336 -4.38431,-4.58653 -11.58626,-13.39593 -12.55859,-14.29297 -0.97233,-0.89704 13.03435,16.18025 -2.44334,-3.17969 -15.47769,-19.35994 -44.43121,-79.86691 -47.13867,-125.49218 -0.21244,-6.01496 -0.27485,-12.60511 -0.1875,-19.02149 3.08038,-122.90738 103.54041,-220.97375 226.48633,-221.08984 z"
       id="path3713"
       transform="scale(0.26458333)"
       inkscape:connector-curvature="0"
       sodipodi:nodetypes="ssssscccccccccccczzccccczzcccc" />
  </g>
</svg>
