<?xml version="1.0" encoding="UTF-8" standalone="no"?>
<!-- Created with Inkscape (http://www.inkscape.org/) -->

<svg
   xmlns:osb="http://www.openswatchbook.org/uri/2009/osb"
   xmlns:dc="http://purl.org/dc/elements/1.1/"
   xmlns:cc="http://creativecommons.org/ns#"
   xmlns:rdf="http://www.w3.org/1999/02/22-rdf-syntax-ns#"
   xmlns:svg="http://www.w3.org/2000/svg"
   xmlns="http://www.w3.org/2000/svg"
   xmlns:sodipodi="http://sodipodi.sourceforge.net/DTD/sodipodi-0.dtd"
   xmlns:inkscape="http://www.inkscape.org/namespaces/inkscape"
   width="210mm"
   height="210mm"
   viewBox="0 0 210 210"
   version="1.1"
   id="svg5135"
   sodipodi:docname="fox_svg_final.svg"
   inkscape:version="0.92.4 (5da689c313, 2019-01-14)"
   inkscape:export-filename="D:\Desktop\grafiki\miroslaw_lis.png"
   inkscape:export-xdpi="197.36"
   inkscape:export-ydpi="197.36">
  <defs
     id="defs5129">
    <linearGradient
       id="linearGradient5724"
       osb:paint="solid">
      <stop
         style="stop-color:#fe8005;stop-opacity:1;"
         offset="0"
         id="stop5722" />
    </linearGradient>
  </defs>
  <sodipodi:namedview
     id="base"
     pagecolor="#3cfa45"
     bordercolor="#666666"
     borderopacity="1.0"
     inkscape:pageopacity="0"
     inkscape:pageshadow="2"
     inkscape:zoom="0.70710678"
     inkscape:cx="382.8461"
     inkscape:cy="386.68033"
     inkscape:document-units="mm"
     inkscape:current-layer="layer1"
     showgrid="false"
     inkscape:window-width="1920"
     inkscape:window-height="1001"
     inkscape:window-x="-9"
     inkscape:window-y="-9"
     inkscape:window-maximized="1" />
  <metadata
     id="metadata5132">
    <rdf:RDF>
      <cc:Work
         rdf:about="">
        <dc:format>image/svg+xml</dc:format>
        <dc:type
           rdf:resource="http://purl.org/dc/dcmitype/StillImage" />
        <dc:title></dc:title>
      </cc:Work>
    </rdf:RDF>
  </metadata>
  <g
     inkscape:label="Layer 1"
     inkscape:groupmode="layer"
     id="layer1"
     transform="translate(0,-87)">
    <path
       id="path5700"
       style="fill:#fff2e6;fill-opacity:1;stroke:none;stroke-width:0.32064998;stroke-linecap:square;stroke-linejoin:miter;stroke-miterlimit:0;stroke-dasharray:none;stroke-opacity:1;paint-order:markers stroke fill"
       d="m 49.094265,134.90483 27.441072,-0.45736 26.069013,1e-5 M 71.047122,264.79256 98.03084,240.0956 m 4.57351,42.0763 -4.57351,-42.0763 M 142.3939,274.39695 98.03084,240.0956 m 73.35913,-0.45735 -39.05779,-2.74411 m 36.58809,-23.3249 -27.44107,5.4882 m 17.83671,-36.58809 -19.20875,27.44108 m 4.11615,-39.78957 -49.851276,61.28507 M 110.37933,157.7724 46.80751,217.22805 m 4.57351,-118.911314 -2.286755,36.588094 8.862908,17.56466 16.291407,32.28662 18.250859,-32.38056 10.104911,-17.92807 -1.8294,-35.673386 -24.239613,35.673376 z m 6.576153,54.152714 -11.149662,64.7586 47.564523,14.17788 32.471936,-7.31762 13.26319,-14.17788 1.37204,9.14701 -9.14702,17.8367 -34.301337,3.20146 -25.611668,-9.14702 -1.372052,16.46464 v 17.37934 l 13.263181,14.17789 18.294046,3.20145 18.7514,-0.91468 21.03815,-6.86027 14.63524,-17.83671 14.36083,-16.92199 -2.4697,-26.06901 -4.57351,-13.72055 -5.03085,-17.37934 -15.0926,-12.34849 -35.09827,-13.12084 -16.625601,-4.62447"
       inkscape:connector-curvature="0"
       sodipodi:nodetypes="ccccccccccccccccccccccccccccccccccccccccccccccccccc" />
    <path
       style="opacity:1;fill:#fe6305;fill-opacity:1;fill-rule:nonzero;stroke:none;stroke-width:2.07428575;stroke-linecap:square;stroke-linejoin:miter;stroke-miterlimit:0;stroke-dasharray:none;stroke-opacity:1;paint-order:markers stroke fill"
       d="m 76.550454,134.39404 24.224496,-35.619946 1.8294,35.673386 -14.227769,5.8622 z"
       id="path5754"
       inkscape:connector-curvature="0"
       sodipodi:nodetypes="ccccc" />
    <path
       style="opacity:1;fill:#fe6305;fill-opacity:1;fill-rule:nonzero;stroke:none;stroke-width:2.07428575;stroke-linecap:square;stroke-linejoin:miter;stroke-miterlimit:0;stroke-dasharray:none;stroke-opacity:1;paint-order:markers stroke fill"
       d="m 51.381022,98.316736 25.169432,36.077304 -13.312749,4.5699 -14.14344,-4.05911 z"
       id="path5752"
       inkscape:connector-curvature="0"
       sodipodi:nodetypes="ccccc" />
    <path
       style="opacity:1;fill:#ff7316;fill-opacity:1;fill-rule:nonzero;stroke:none;stroke-width:0.1619527;stroke-linecap:square;stroke-linejoin:miter;stroke-miterlimit:0;stroke-dasharray:none;stroke-opacity:1;paint-order:markers stroke fill"
       d="m 110.43256,157.54531 c -23.063655,21.53381 -63.625049,59.68274 -63.625049,59.68274 l 47.564524,14.17788 35.851805,-29.92921 13.99947,-31.35586 c 0,0 -22.29629,-8.60226 -33.52073,-12.6447 l -0.15665,0.0401 z"
       id="path5796"
       inkscape:connector-curvature="0"
       sodipodi:nodetypes="cccccccc" />
    <path
       style="opacity:1;fill:#ff7316;fill-opacity:1;fill-rule:nonzero;stroke:none;stroke-width:2.07428575;stroke-linecap:square;stroke-linejoin:miter;stroke-miterlimit:0;stroke-dasharray:none;stroke-opacity:1;paint-order:markers stroke fill"
       d="M 84.310305,278.97045 71.047122,264.79256 c 0,0 18.372824,-16.20035 27.020368,-24.54618 l 5.57433,22.4081 -1.03747,19.51742 z"
       id="path5740"
       inkscape:connector-curvature="0"
       sodipodi:nodetypes="cccccc" />
    <path
       style="opacity:1;fill:#ff7316;fill-opacity:1;fill-rule:nonzero;stroke:none;stroke-width:2.07428575;stroke-linecap:square;stroke-linejoin:miter;stroke-miterlimit:0;stroke-dasharray:none;stroke-opacity:1;paint-order:markers stroke fill"
       d="m 98.030844,240.0956 34.301336,-3.20146 18.08334,0.41362 20.97445,2.33049 -28.99607,34.7587 z"
       id="path5738"
       inkscape:connector-curvature="0"
       sodipodi:nodetypes="cccccc" />
    <path
       style="opacity:1;fill:#fe6305;fill-opacity:1;fill-rule:nonzero;stroke:none;stroke-width:2.07428575;stroke-linecap:square;stroke-linejoin:miter;stroke-miterlimit:0;stroke-dasharray:none;stroke-opacity:1;paint-order:markers stroke fill"
       d="m 132.33218,236.89414 9.14702,-17.8367 13.25031,-3.91776 14.19076,-1.57044 c 0,0 1.11443,11.17387 1.52325,15.3768 l 0.94645,10.69221 z"
       id="path5748"
       inkscape:connector-curvature="0"
       sodipodi:nodetypes="ccccccc" />
    <path
       style="opacity:1;fill:#ff7316;fill-opacity:1;fill-rule:nonzero;stroke:none;stroke-width:2.07428575;stroke-linecap:square;stroke-linejoin:miter;stroke-miterlimit:0;stroke-dasharray:none;stroke-opacity:1;paint-order:markers stroke fill"
       d="m 140.10716,209.91043 19.20875,-27.44108 9.60436,31.09989 -27.44107,5.4882 z"
       id="path5760"
       inkscape:connector-curvature="0"
       sodipodi:nodetypes="ccccc" />
    <path
       style="opacity:1;fill:#fe6305;fill-opacity:1;fill-rule:nonzero;stroke:none;stroke-width:2.07428575;stroke-linecap:square;stroke-linejoin:miter;stroke-miterlimit:0;stroke-dasharray:none;stroke-opacity:1;paint-order:markers stroke fill"
       d="m 102.60435,282.1719 -4.573506,-42.0763 23.509606,17.60987 20.85345,16.69148 -21.03815,6.86027 z"
       id="path5746"
       inkscape:connector-curvature="0"
       sodipodi:nodetypes="cccccc" />
    <path
       style="opacity:1;fill:#fe6305;fill-opacity:1;fill-rule:nonzero;stroke:none;stroke-width:2.07428575;stroke-linecap:square;stroke-linejoin:miter;stroke-miterlimit:0;stroke-dasharray:none;stroke-opacity:1;paint-order:markers stroke fill"
       d="m 144.22331,170.12086 15.0926,12.34849 -15.43849,24.63018 -17.03345,16.98878 -32.471935,7.31762 z"
       id="path5750"
       inkscape:connector-curvature="0"
       sodipodi:nodetypes="cccccc" />
    <path
       style="opacity:1;fill:#ff7316;fill-opacity:1;fill-rule:nonzero;stroke:none;stroke-width:0.1619527;stroke-linecap:square;stroke-linejoin:miter;stroke-miterlimit:0;stroke-dasharray:none;stroke-opacity:1;paint-order:markers stroke fill"
       d="m 49.094265,134.90483 c 0,0 17.107595,34.37721 24.860927,49.6979 l 28.649158,-50.15525 c -17.853111,-0.50834 -53.510085,0.45735 -53.510085,0.45735 z"
       id="path5798"
       inkscape:connector-curvature="0"
       sodipodi:nodetypes="cccc" />
  </g>
</svg>
