<?xml version="1.0" encoding="UTF-8" standalone="no"?>
<!-- Created with Inkscape (http://www.inkscape.org/) -->

<svg
   xmlns:dc="http://purl.org/dc/elements/1.1/"
   xmlns:cc="http://creativecommons.org/ns#"
   xmlns:rdf="http://www.w3.org/1999/02/22-rdf-syntax-ns#"
   xmlns:svg="http://www.w3.org/2000/svg"
   xmlns="http://www.w3.org/2000/svg"
   xmlns:sodipodi="http://sodipodi.sourceforge.net/DTD/sodipodi-0.dtd"
   xmlns:inkscape="http://www.inkscape.org/namespaces/inkscape"
   width="210mm"
   height="297mm"
   viewBox="0 0 210 297"
   version="1.1"
   id="svg8"
   inkscape:version="0.92.4 (5da689c313, 2019-01-14)"
   sodipodi:docname="bmw_e83_side.svg">
  <defs
     id="defs2" />
  <sodipodi:namedview
     id="base"
     pagecolor="#ffffff"
     bordercolor="#666666"
     borderopacity="1.0"
     inkscape:pageopacity="0.0"
     inkscape:pageshadow="2"
     inkscape:zoom="1"
     inkscape:cx="234.02597"
     inkscape:cy="175.29427"
     inkscape:document-units="mm"
     inkscape:current-layer="layer1"
     showgrid="false"
     inkscape:window-width="1920"
     inkscape:window-height="1001"
     inkscape:window-x="-9"
     inkscape:window-y="-9"
     inkscape:window-maximized="1" />
  <metadata
     id="metadata5">
    <rdf:RDF>
      <cc:Work
         rdf:about="">
        <dc:format>image/svg+xml</dc:format>
        <dc:type
           rdf:resource="http://purl.org/dc/dcmitype/StillImage" />
        <dc:title></dc:title>
      </cc:Work>
    </rdf:RDF>
  </metadata>
  <g
     inkscape:label="Layer 1"
     inkscape:groupmode="layer"
     id="layer1">
    <path
       style="fill:#000000;stroke-width:0.8664"
       d="m 495.30078,797.78516 c -14.83268,-0.0639 -26.81482,0.22559 -44.95312,0.92187 -19.29907,0.74083 -35.86727,1.52115 -36.82032,1.73242 -0.95304,0.2112 -6.0035,1.04183 -11.22265,1.84766 -5.93197,0.91593 -11.56816,2.39954 -15.03516,3.95508 -3.05038,1.3686 -7.16296,2.71269 -9.13867,2.98633 -5.08861,0.70518 -19.30325,4.53653 -24.11328,6.5 -2.23268,0.91139 -4.81285,1.65625 -5.73242,1.65625 -0.91957,0 -2.63641,0.75928 -3.81641,1.6875 -1.18,0.92817 -5.61817,3.53064 -9.86328,5.7832 -6.25947,3.32145 -19.60042,10.9296 -26.3457,15.02344 -17.40474,10.56332 -52.0326,33.37189 -62.16993,40.95117 l -8.01953,5.99609 -8.4414,-0.20703 c -8.00091,-0.19642 -18.62545,0.95948 -36.16797,3.93359 -4.28868,0.72711 -13.06112,2.11715 -19.49414,3.08985 -35.5722,5.37872 -42.68701,6.74728 -77.109378,14.82031 -18.468684,4.33145 -36.289511,10.05743 -43.320313,13.91992 -5.94627,3.26672 -11.85202,8.85653 -13.558593,12.83399 -3.827713,8.92108 -7.033346,22.47902 -7.873047,33.29882 -0.219485,2.82815 -0.933829,5.95883 -1.587891,6.95704 -0.975859,1.48936 -1.023109,3.74965 -0.267578,12.59961 1.046234,12.25503 2.222569,15.40583 6.042969,16.16993 2.125576,0.4251 3.095659,1.4859 5.238281,5.7305 2.2366,4.4306 2.475648,5.4981 1.597656,7.1386 -1.139146,2.1285 -0.430837,4.1584 2.314453,6.6407 2.513821,2.2729 40.429662,4.8839 48.582032,3.3457 8.543679,-1.6121 9.152939,-1.3525 10.287109,4.3789 0.52656,2.6609 1.74382,5.9708 2.70508,7.3554 0.96124,1.3846 2.74245,4.2717 3.95703,6.416 6.49707,11.4706 21.32114,22.6048 35.26758,26.4864 v 0 c 5.52736,1.5385 20.96125,1.482 27.67969,-0.1015 18.46748,-4.3528 33.09652,-17.2072 40.79101,-35.8438 l 2.94727,-7.1387 4.79492,0.6485 c 2.63741,0.3567 75.75382,0.6798 162.48047,0.7187 148.84792,0.067 157.80405,-0.014 159.82617,-1.4453 3.02664,-2.1422 5.84875,-1.9544 6.52344,0.4336 5.48367,19.4091 20.19795,35.0612 38.98632,41.4688 5.35087,1.8246 7.59441,2.0656 19.06055,2.0429 12.34783,-0.023 13.27815,-0.1462 18.62891,-2.4824 7.96698,-3.4785 16.14343,-9.0037 21.43945,-14.4863 5.56018,-5.7561 6.47322,-7.041 10.58399,-14.9043 3.01288,-5.7632 3.50288,-6.2676 6.625,-6.8145 4.25899,-0.7461 21.77501,-3.1038 28.06445,-3.7773 6.69067,-0.7165 24.03787,-3.8223 26.43164,-4.7324 1.0978,-0.4174 6.02487,-1.2023 10.94922,-1.7442 4.92434,-0.5418 9.48596,-1.4267 10.13672,-1.9668 0.65079,-0.5401 2.06056,-2.9459 3.13281,-5.3476 5.05995,-11.3333 5.64691,-12.2445 8.58984,-13.3086 3.83343,-1.3862 5.16909,-3.10061 6.93946,-8.90823 1.14788,-3.76551 3.00607,-16.23647 3.11718,-20.92188 0.0408,-1.72274 -3.68726,-4.11523 -6.41211,-4.11523 -5.13494,0 -5.70312,-0.57111 -5.70312,-5.73633 0,-2.57635 -0.46607,-5.43055 -1.03516,-6.3418 -0.80201,-1.28424 -0.80201,-2.16745 0,-3.92773 1.52092,-3.33808 1.27823,-14.95745 -0.42773,-20.44336 -2.07715,-6.67918 -2.1085,-19.95321 -0.0527,-22.22656 1.14471,-1.26588 1.51563,-3.18563 1.51563,-7.83789 0,-3.38914 -0.34186,-6.37272 -0.75977,-6.63086 -0.41794,-0.25829 -1.21621,-2.28719 -1.77539,-4.50781 -1.19319,-4.73862 -5.42223,-11.24633 -7.79687,-12 -0.91495,-0.29042 -3.11143,-2.16898 -4.88282,-4.17383 -6.01693,-6.81007 -35.79038,-36.76679 -39.32031,-39.5625 -1.93194,-1.53014 -3.51367,-3.12498 -3.51367,-3.54492 0,-0.41991 1.17008,-2.60914 2.59961,-4.86329 2.68944,-4.24078 3.45554,-9.31949 1.51563,-10.04296 -1.09807,-0.40952 -9.11487,-1.82842 -27.94141,-4.94532 -5.71828,-0.94669 -13.71131,-1.96263 -17.76172,-2.25781 -5.04083,-0.36733 -10.06057,-1.47262 -15.91211,-3.50586 -6.80243,-2.36368 -10.78482,-3.14912 -19.49414,-3.8418 -6.01984,-0.47879 -15.03952,-1.22525 -20.04297,-1.6582 -15.05397,-1.30258 -26.24102,-1.73269 -69.74414,-2.68555 -12.89836,-0.2825 -22.825,-0.44797 -31.72461,-0.48632 z m 62.1875,6.60546 c 2.76869,10e-6 2.98685,0.189 2.73438,2.375 -0.44255,3.83415 -4.25337,3.52523 -5.25196,-0.42578 -0.44027,-1.7419 -0.17106,-1.94922 2.51758,-1.94922 z m -150.46094,1.61329 c 0.86143,0.0317 1.01141,2.35765 -2.80078,4.19726 -5.34557,2.57957 -6.09706,2.31576 -11.2207,3.64453 -5.12364,1.32881 -34.64648,10.25391 -34.64648,10.25391 -0.97513,-0.71588 -2.65518,-1.96365 -0.0527,-3.45899 5.04275,-2.89749 16.99609,-6.39843 16.99609,-6.39843 -0.68876,0.0954 27.80112,-8.38266 31.72461,-8.23828 z m 201.19336,1.02929 c 5.60141,-0.10276 21.46671,2.74327 26.23828,4.70703 l 5.19727,2.13868 -6.49805,-0.0977 c -10.49983,-0.15832 -16.54719,-1.27511 -22.09179,-4.07813 -4.34604,-2.19707 -4.81276,-2.63212 -2.84571,-2.66992 z m -125.27539,-0.3125 18.41211,-0.33398 c 0,0 23.82157,1.33732 21.28041,1.33732 l -15.96976,0.79734 c 0,0 -6.11864,-0.0138 -20.79698,0.0646 -14.53387,0.0776 -33.83286,0.38829 -42.88671,0.6914 -9.0539,0.30312 -16.26741,0.33892 -16.0293,0.0781 1.28561,-0.31951 2.00923,-0.96367 4.28412,-1.19301 11.76547,-1.18609 51.70611,-1.44177 51.70611,-1.44177 z m 106.89453,3.13104 c 4.05041,-0.0324 8.53333,0.23993 9.96289,0.60352 l 2.59961,0.66015 -2.59961,-0.0586 c -1.42956,-0.0324 -5.91248,-0.3026 -9.96289,-0.60156 l -7.36523,-0.54297 z m -89.67382,2.88086 c 72.03035,0.043 98.99616,1.28516 156.83007,7.22461 6.43567,0.66093 9.94948,2.19595 9.95703,4.35156 0.003,0.71932 3.6107,5.23293 8.01563,10.0293 13.69157,14.90838 17.74807,19.64183 32.99805,38.49805 5.00662,6.19056 8.36718,11.36277 8.36718,12.88086 0,1.08181 -0.90505,1.08161 -10.39843,0.0137 -3.57392,-0.40203 -29.36835,-0.83596 -57.32227,-0.96485 -27.95391,-0.12873 -50.75943,-0.30117 -50.67969,-0.38281 0.38638,-0.39571 12.39978,-2.93442 17.62305,-3.72461 3.2482,-0.49141 8.63504,-1.45435 11.9707,-2.13867 3.33563,-0.68436 10.54933,-2.06101 16.0293,-3.06055 19.54787,-3.56549 29.47746,-6.27938 32.16406,-8.78906 5.08993,-4.75472 2.53009,-12.8121 -8.09961,-25.49219 -8.41882,-10.04269 -10.62625,-12.04214 -15.6582,-14.1914 -5.20528,-2.22327 -21.0947,-4.96199 -35.26562,-6.07813 -5.9565,-0.46911 -16.28984,-1.44633 -22.96289,-2.16992 -19.30428,-2.09337 -51.1343,-3.06993 -99.63282,-3.05859 -49.44083,0.012 -74.88978,0.88588 -88.80664,3.04883 -5.00345,0.77763 -11.66395,1.71667 -14.80273,2.08593 -6.421,0.75561 -16.03025,3.42609 -23.68164,6.58203 -2.8204,1.16334 -5.29746,1.94458 -5.50586,1.73633 -1.13536,-1.13537 4.69348,-4.85516 10.68554,-6.81836 10.66432,-3.49402 23.20621,-5.57436 46.30079,-7.68164 19.61506,-1.78994 25.83193,-1.9344 81.875,-1.90039 z m 174.43359,10.00391 c 2.93753,0.0622 9.22118,0.84499 12.49219,1.68164 1.78692,0.45706 3.25,1.0756 3.25,1.37305 0,0.29729 -1.21022,2.42525 -2.68946,4.73046 -1.47923,2.30518 -2.74686,4.17918 -2.8164,4.16407 -0.53431,-0.12193 -11.82227,-11.33715 -11.82227,-11.7461 0,-0.16431 0.60676,-0.22385 1.58594,-0.20312 z m -179.38086,0.71094 c 35.44819,-0.002 52.0534,0.54579 74.22656,2.44531 l 6.89649,0.58984 1.00781,3.0332 c 0.55408,1.66783 1.8894,6.93013 2.9668,11.69532 1.07743,4.76523 2.88064,11.07132 4.00781,14.01172 1.12713,2.94039 2.04883,5.95644 2.04883,6.70312 0,0.74665 0.97884,5.12575 2.17578,9.73242 1.1969,4.60672 1.94557,8.60754 1.66211,8.89063 -1.51128,1.51128 -11.51311,2.73714 -28.5293,3.49414 -44.49127,1.97938 -67.64909,2.86201 -82.30859,3.13867 -8.57738,0.16184 -21.30861,0.56584 -28.29102,0.89844 l -12.69531,0.60547 1.13476,-4.67578 c 0.62438,-2.57182 2.1581,-8.38128 3.40625,-12.90821 1.24819,-4.52693 3.58312,-13.29938 5.18946,-19.49414 1.60633,-6.19476 3.52399,-13.4065 4.26172,-16.02734 0.73776,-2.62088 1.76839,-6.42208 2.28906,-8.44727 l 0.94531,-3.68164 z m -46.27148,0.13281 c 1.61511,0.007 2.26757,0.23624 2.26757,0.71289 0,0.57143 -0.80476,4.02779 -1.78906,7.67969 -4.40096,16.32824 -5.16304,19.19197 -6.94531,26.13281 -1.04009,4.05041 -2.6019,9.70535 -3.4707,12.56445 -0.86884,2.85914 -2.24435,8.01803 -3.05665,11.46485 -0.953,4.04386 -1.96445,6.41694 -2.85351,6.68945 -0.75783,0.2321 -20.09381,1.19912 -42.9668,2.15039 -22.87294,0.95131 -45.77629,1.9712 -50.89843,2.26562 -7.90844,0.45434 -9.39047,0.33347 -9.82422,-0.79687 -0.28094,-0.7321 -0.3165,-1.64555 -0.0781,-2.03125 0.23839,-0.3857 0.1134,-4.7698 -0.27734,-9.74219 -0.75947,-9.6647 -1.59744,-11.30078 -5.79883,-11.30078 -1.10022,0 -2.00195,-0.51109 -2.00195,-1.13672 0,-2.10126 2.71917,-4.20539 25.99218,-20.10937 15.03654,-10.27548 28.12211,-16.28845 41.1543,-18.91016 7.82786,-1.5747 40.40514,-5.04049 46.35352,-4.93164 2.14431,0.0393 6.72489,-0.17458 10.17968,-0.47656 1.72904,-0.15115 3.04461,-0.22869 4.01368,-0.22461 z m 131.38476,1.50586 3.60742,0.26562 3.60938,0.26563 4.97656,12.5625 c 2.73763,6.90954 5.34784,13.16139 5.80078,13.89258 1.21104,1.95496 8.67068,20.91574 8.9961,22.86718 0.23705,1.42152 -0.56233,1.83309 -5.35352,2.76172 -7.83334,1.51824 -7.64511,1.5637 -8.5,-2.05078 -0.42266,-1.78692 -1.26537,-5.1975 -1.87305,-7.58008 -0.60763,-2.38261 -1.47799,-6.26654 -1.93554,-8.63086 -0.45755,-2.36432 -1.38575,-5.36699 -2.06055,-6.67187 -0.67476,-1.30492 -1.64383,-4.43734 -2.1543,-6.96289 -0.51046,-2.52552 -1.64381,-6.93188 -2.51953,-9.79102 -0.87572,-2.8591 -1.8186,-6.48865 -2.09375,-8.06445 z m -234.41601,0.69336 c 0.21158,0.004 0.40014,0.0318 0.56836,0.0801 1.41815,0.40671 2.72187,2.22803 2.89648,2.75195 0.17464,0.52392 -8.85124,5.72484 -11.84766,7.66797 -2.99642,1.94313 -8.95741,6.09593 -13.24609,9.22851 -4.28868,3.13259 -8.77159,6.36697 -9.96289,7.1875 -1.1913,0.82054 -7.55344,5.59038 -14.13672,10.59961 -6.58328,5.0092 -14.03552,10.66621 -16.56055,12.57227 -2.52503,1.90609 -6.26045,4.73255 -8.30273,6.28125 -3.4209,2.59408 -4.19809,2.81015 -9.86524,2.72851 -5.90791,-0.0852 -11.35694,-0.92921 -12.33789,-1.91015 -0.93514,-0.93517 41.16764,-28.40976 67.70118,-44.17969 13.83918,-8.22519 21.92,-13.07042 25.09375,-13.00781 z m 252.27929,5.49609 c 1.96161,-0.0361 5.52719,0.38081 11.63672,1.23633 4.96728,0.69555 13.17659,1.65631 18.24414,2.13476 11.3328,1.06995 18.93672,3.10671 21.91797,5.8711 1.24467,1.15411 4.42903,4.9771 7.07617,8.49414 6.79967,9.0342 6.52733,9.87368 -3.98437,12.27148 -14.69681,3.35244 -25.52775,5.48633 -27.8418,5.48633 -1.24562,0 -3.92136,0.586 -5.94726,1.30078 -6.48499,2.28802 -7.55133,1.90523 -9.97461,-3.57422 -1.18526,-2.68013 -2.15625,-5.03721 -2.15625,-5.23828 0,-0.20099 -1.40619,-3.36808 -3.125,-7.03906 -2.7775,-5.93208 -6.52153,-15.20012 -7.86133,-19.45508 -0.30308,-0.96238 0.054,-1.45216 2.01562,-1.48828 z m 94.11133,4.6582 c 0,0 5.36346,5.26952 9.80664,9.35547 8.80226,8.09454 31.88403,30.62115 32.47266,32.24219 0.64656,1.7805 -8.22278,4.01707 -9.51367,2.04687 -0.7654,-1.1681 -8.80469,-10.74023 -8.80469,-10.74023 L 693.125,844.55682 Z m -35.45875,-1.12949 c 0,0 14.38075,19.62604 14.80675,20.87625 1.73786,5.10017 -1.05243,7.9445 -27.23276,12.9427 -5.00346,0.95523 -12.60587,2.48744 -16.89454,3.40625 -9.19937,1.97102 -17.32917,2.96704 -14.72851,1.80468 2.31292,-1.03377 16.13097,-4.01858 26.85742,-5.80078 22.72456,-3.77571 26.42578,-5.21753 26.42578,-10.29687 0,-1.6467 -0.39066,-3.23487 -0.86719,-3.5293 -0.47652,-0.2945 -8.15727,-13.79697 -8.15727,-13.79697 z m 42.79859,20.2291 c 0,0 0.69187,-1.16363 1.60187,-0.0249 3.51161,4.39425 13.69306,17.57765 13.69306,17.57765 0,0 8.96959,12.52904 9.77539,14.6289 0.22155,0.57733 -1.72072,2.09801 -4.43555,3.47266 -6.0299,3.05322 -18.37502,14.60045 -19.17383,17.93555 -0.33777,1.41029 0.1001,5.35991 1.04102,9.40234 1.28787,5.53312 2.15979,7.44476 4.22851,9.26563 2.79379,2.45907 12.12351,5.73996 18.83399,6.62304 4.94249,0.65042 5.5566,1.58485 5.97265,9.09961 l 0.3125,5.63086 -6.49804,0.20313 c -3.57389,0.11187 -16.24521,0.79613 -28.15821,1.51953 -11.91299,0.72344 -25.8033,1.46878 -30.86718,1.65625 l -9.20704,0.34179 -6.38867,-4.36718 c -8.00976,-5.47559 -13.46501,-7.92095 -23.55468,-10.55664 -13.05377,-3.40993 -22.21135,-3.60766 -38.12891,-0.82422 l -3.3125,0.57812 1.45312,-3.37109 c 4.01371,-9.30667 7.22443,-23.26081 8.67774,-37.71289 l 0.49219,-4.88086 33.52343,-0.6543 c 18.43779,-0.35943 45.67058,-0.4389 60.51758,-0.17773 29.00856,0.51004 30.6211,0.30564 30.6211,-3.86133 -0.88443,-5.62592 -8.47461,-13.9668 -8.47461,-13.9668 0,0 -9.26328,-11.8252 -12.3071,-15.84011 -0.65436,-0.86313 -0.23783,-1.697 -0.23783,-1.697 z M 320.18359,875.4494 c 0.88119,-0.0553 1.87646,2.25853 2.54102,7.13281 0.53597,3.93131 0.71255,7.42465 0.39258,7.76367 -4.70123,-0.75646 -18.63056,-2.68205 -18.9898,-5.67673 0.0213,-1.97713 2.84167,-8.00001 5.67438,-9.25976 5.58344,-2.48304 9.71928,0.0816 10.38182,0.04 z m 415.39649,8.37109 c 1.80336,0.0697 4.37223,-0.22246 6.03125,0.95703 2.20347,1.56657 3.83203,7.14844 3.83203,7.14844 0,0 1.04109,4.66125 -0.43555,6.03516 -2.44297,0.10655 -8.44025,1.06366 -10.37304,0 -2.55781,-3.60848 -5.01594,-9.18124 -5.99415,-13.46289 0.21022,-0.21022 2.25489,-0.48346 4.54297,-0.60743 1.02286,-0.0554 1.79537,-0.0936 2.39649,-0.0703 z m -146.10742,1.85352 c 2.08986,0.0844 2.09961,1.74367 2.09961,7.02148 0,10.96347 -2.54951,24.20263 -6.9375,36.02344 -0.88445,2.38258 -1.83996,5.15669 -2.12305,6.16602 -0.72023,2.56898 -2.81084,4.17344 -7.83399,6.00976 -5.01361,1.83288 -7.51248,3.23314 -18.8457,10.56641 -6.01054,3.88913 -17.48666,16.14857 -23.29492,24.88476 l -5.41992,8.1543 -5.24414,0.45703 c -2.88431,0.25179 -22.59372,0.67363 -43.79883,0.93555 h -0.002 c -21.20516,0.26211 -40.89286,0.69618 -43.75196,0.9668 -2.85913,0.27042 -5.49011,0.19927 -5.84765,-0.16016 -0.92361,-0.92886 -0.8267,-15.44801 0.27734,-41.51953 0.99568,-23.51199 2.27088,-32.6342 6.36328,-45.48633 l 2.07031,-6.49805 19.36133,-1.05469 c 33.22813,-1.80971 71.91203,-3.28844 79.14453,-3.02539 10.37787,0.37743 43.20193,-1.46195 49.44922,-2.77148 2.00442,-0.42009 3.38405,-0.70828 4.33399,-0.66992 z m -294.19922,1.02344 c 0.27958,0 1.01065,1.3909 1.625,3.08984 0.61434,1.69893 1.66716,3.30045 2.33984,3.55859 0.67269,0.25814 1.22266,0.81665 1.22266,1.24219 0,0.42561 -3.20185,0.77344 -7.11524,0.77344 h -7.11523 l 4.26758,-4.33203 c 2.34677,-2.38262 4.49582,-4.33203 4.77539,-4.33203 z m -68.99219,4.67382 c 0.66732,-0.003 1.27177,0.0299 1.77539,0.10157 3.38122,0.48105 21.76741,1.01408 41.4043,1.20117 7.76785,0.074 9.20733,0.29599 8.80078,1.35547 -0.26732,0.69664 -1.32732,1.53074 -2.35547,1.85351 -1.02815,0.32262 -2.6727,1.44438 -3.65234,2.49414 -2.09319,2.24308 -4.94942,2.62202 -29.8418,3.95899 -9.29214,0.49905 -19.81868,1.32976 -23.39258,1.8457 -3.5739,0.51598 -11.56696,1.00058 -17.76172,1.07617 -17.14614,0.20977 -50.08582,3.45258 -57.60937,5.67188 -1.66468,0.49103 -4.58882,0.90259 -6.49805,0.91015 -3.79477,0.0175 -12.77846,1.54503 -25.56445,4.34766 -4.52694,0.99231 -10.37524,2.18852 -12.996096,2.6582 -2.620861,0.46972 -9.44387,2.43166 -15.16211,4.36133 v 0.002 c -8.70082,2.93613 -11.809863,3.56552 -19.060546,3.86524 l -8.664063,0.35742 3.246094,-1.66211 c 3.059482,-1.5676 26.469381,-9.31283 34.009765,-11.25195 9.504016,-2.44411 22.593146,-5.38678 30.755856,-6.91602 26.42143,-4.94993 33.59197,-6.18312 35.96289,-6.17968 1.43271,0.002 3.88526,-0.36338 5.45118,-0.8125 4.96965,-1.42526 34.09579,-5.95165 41.96484,-6.52149 4.16275,-0.30145 9.7884,-1.12526 12.50195,-1.83203 2.11406,-0.55072 4.6836,-0.87682 6.68555,-0.88477 z m 500.11523,1.40039 c 3.3402,-0.0149 4.66602,5.68327 4.66602,20.05469 0,6.95316 -0.24319,13.86048 -0.54102,15.34961 -0.70182,3.50922 -2.46731,3.4887 -13.32226,-0.1582 -7.48808,-2.51577 -8.36749,-3.0451 -9.74414,-5.85938 -0.83229,-1.70135 -1.76827,-5.53286 -2.08008,-8.51562 l -0.56641,-5.42383 5.43555,-5.17187 c 5.87717,-5.59253 13.21909,-10.26406 16.15234,-10.2754 z m -293.63281,0.85743 -2.46094,8.44726 c -1.35295,4.64606 -3.03792,13.12552 -3.74609,18.84375 -1.4942,12.06448 -3.04725,39.65905 -3.05859,54.38477 -0.008,9.76346 -0.0908,10.2317 -1.95703,10.98047 -1.87975,0.75424 -158.03695,3.23453 -158.75,2.52148 -0.65393,-0.65393 -2.17094,-11.54671 -2.17774,-15.63476 l -0.79492,-15.64454 c 0.29511,-30.41446 0.40374,-32.16383 2.32226,-37.3125 2.72957,-7.32517 7.85969,-14.70582 12.32813,-17.73632 4.43078,-3.00496 3.10101,-2.88672 51.11719,-4.54102 13.58082,-0.46791 41.84756,-1.62703 62.81445,-2.57422 20.96689,-0.94715 39.52594,-1.72504 41.24219,-1.72851 z m 312.96533,8.09023 c 2.34913,2.96315 0.87806,7.52249 -0.0967,11.08765 -0.53788,1.96722 -1.33921,4.21045 -3.06693,5.29408 -2.18231,1.36876 -5.68295,2.17027 -7.70661,0.57629 -2.18425,-1.72047 -1.42563,-5.45318 -1.34375,-8.23243 0.0918,-3.11526 0.15713,-6.82714 2.04687,-9.12304 3.04803,-1.28333 8.73565,-1.23328 10.16715,0.39745 z m -479.72314,3.12461 -1.89453,2.83984 c -6.72861,10.08692 -8.24895,18.87427 -7.35352,42.47852 l 2.6543,43.96875 c 1.53942,7.12416 1.59805,7.30436 3.31641,10.29496 l 1.18554,2.0664 45.30274,-0.1699 c 24.91648,-0.094 45.51793,-0.2978 45.78125,-0.4532 0.26331,-0.1553 35.70263,-0.5589 78.7539,-0.8964 l 78.27539,-0.6133 4.4668,-1.9883 c 4.61204,-2.0533 7.34563,-4.48957 9.24609,-8.24026 0.60363,-1.19131 4.33901,-7.07918 8.30079,-13.08398 8.04347,-12.19136 17.51941,-22.9007 23.2246,-26.24415 2.07795,-1.21776 3.99312,-2.76977 4.25391,-3.44921 0.26075,-0.67945 1.96287,-1.70757 3.7832,-2.28516 1.8203,-0.57763 4.26046,-1.64843 5.42383,-2.38086 1.16342,-0.7324 3.30817,-1.63061 4.76563,-1.99609 1.4575,-0.36548 5.44933,-1.47118 8.87109,-2.45703 21.27326,-6.12923 42.69951,-3.78116 60.19336,6.59765 4.68533,2.77973 5.19182,3.30587 3.42969,3.5625 -1.13703,0.16547 -3.08645,-0.45284 -4.33203,-1.37305 -2.97513,-2.19802 -8.55816,-4.62861 -16.56055,-7.21093 -5.70093,-1.83976 -8.09225,-2.09533 -19.49414,-2.08399 -11.73184,0.0113 -13.67756,0.23597 -20.00195,2.32227 -14.36803,4.73968 -25.55479,12.32207 -29.49219,19.98828 -0.79155,1.5411 -2.74268,3.97082 -4.33594,5.40039 -3.17987,2.8532 -8.11288,12.2968 -10.78515,20.64453 -1.68367,5.2594 -3.61546,25.67619 -2.84961,30.11719 0.19816,1.1489 0.0543,2.5448 -0.31836,3.1016 -0.5102,0.762 -36.98447,1.1423 -147.52344,1.539 v 0 c -80.76606,0.2899 -148.99242,0.663 -151.61328,0.8281 -8.85471,0.5585 -8.40417,1.1583 -8.91016,-11.875 -0.47699,-12.2861 -2.42717,-20.07416 -8.20508,-32.77734 -6.78623,-14.92006 -19.07053,-27.85534 -32.0039,-33.69531 -22.24781,-10.04584 -44.92723,-9.57018 -67.35938,1.41211 -5.91244,2.89458 -6.20444,2.94335 -17.43945,2.94335 -8.474235,0 -11.672481,-0.29799 -12.384767,-1.15625 -0.528208,-0.63647 -1.900547,-4.77432 -3.048828,-9.19531 -1.148285,-4.42106 -2.92664,-9.17283 -3.951172,-10.55859 -1.930053,-2.61052 -1.751824,-4.21485 0.46875,-4.21485 0.706148,0 3.705309,-0.73864 6.664063,-1.64062 C 113.40944,919.1506 163.77732,911.801 202.125,909.20703 c 5.71824,-0.38683 18.58487,-1.29569 28.5918,-2.01758 10.00692,-0.72192 22.04077,-1.5439 26.74218,-1.82812 z m 476.11133,16.73828 1.92969,7.0332 c 1.06197,3.8682 2.13979,10.055 2.39453,13.74805 l 0.46289,6.71484 -3.80469,-0.0547 c -6.31744,-0.0912 -7.37149,-0.90036 -8.00195,-6.15039 -0.9755,-8.12338 -0.68626,-18.94575 0.51367,-19.25 0.59565,-0.15107 2.30175,-0.67058 3.79297,-1.15625 z m -513.48438,4.10352 c -8.90523,0 -12.21289,0.91857 -12.21289,3.39257 0,2.15498 0.8564,2.66663 5.89258,3.51563 7.62052,1.2847 9.50099,1.04605 12.43359,-1.57422 1.84652,-1.64988 2.57577,-2.93753 2.20703,-3.89844 -0.45589,-1.18817 -1.88861,-1.43554 -8.32031,-1.43554 z m -148.072263,4.33203 c 2.862599,0 7.528684,7.99986 5.847656,10.02539 -1.900052,2.28941 -3.175713,1.34273 -3.630859,-2.69531 -0.243878,-2.16367 -1.135476,-4.69912 -1.980469,-5.63282 -1.270424,-1.40398 -1.31098,-1.69726 -0.236328,-1.69726 z m -12.421875,0.86719 c 0,0 -2.130209,3.20403 -2.96875,4.92968 -0.978765,2.01423 -1.482529,4.23075 -2.382813,6.28125 -0.941325,2.14398 -1.378462,4.59983 -3.148437,6.2793 -1.586721,1.17694 -3.928742,0.52709 -5.904297,0.51953 -3.104583,-0.009 -8.87757,-0.28474 -9.273437,-0.87109 -2.366416,-3.5051 -0.912922,-5.71914 0.503906,-7.97461 1.296786,-2.06434 1.750695,-5.16954 4.527344,-6.48047 4.351695,-1.95485 10.18443,-1.29879 15.029296,-2.66992 z m 6.396484,2.60156 c 1.481125,0.0586 2.893578,0.82041 3.841797,2.26758 1.415985,2.16105 1.407846,2.41992 -0.195312,5.41406 -1.100225,2.05485 -3.036674,3.80825 -5.583985,5.05859 -4.776049,2.34425 -7.796875,2.54759 -7.796875,0.52539 0,-2.02121 3.36097,-8.96144 5.480469,-11.31836 1.224055,-1.36119 2.772782,-2.0059 4.253906,-1.94726 z m 84.011724,12.26758 c 16.95109,-0.10208 33.75676,5.44192 44.74804,15.76171 13.60942,12.77802 24.37114,38.7566 23.38086,56.4414 l -0.29101,5.1992 -4.23438,0.2676 -4.23242,0.2696 0.54492,-5.0352 c 0.98734,-9.1179 -2.42046,-23.89434 -7.45508,-32.32424 -3.92196,-6.56689 -11.35467,-14.87119 -16.33593,-18.2539 -19.238,-13.06428 -40.36729,-14.66802 -60.4336,-4.58594 -19.26534,9.67964 -30.86935,28.21323 -31.6582,50.56448 l -0.22852,6.498 -4.056638,0.2637 c -3.055865,0.1993 -4.183105,-0.069 -4.576172,-1.0937 -0.728436,-1.8983 2.904505,-23.98028 5.066406,-30.79303 5.741964,-18.09456 17.900454,-31.84632 33.818364,-38.24804 8.14543,-3.27589 17.06421,-4.87818 25.94336,-4.93164 z m 449.05273,0.72656 c 5.44029,0 16.84049,2.02385 22.51953,3.99805 13.10574,4.55591 25.78935,16.05402 32.90234,29.82617 5.19221,10.05297 7.089,16.40091 8.77735,29.36723 1.65868,12.7387 3.15036,15.6484 8.01953,15.6484 1.65762,0 2.78964,0.224 2.51562,0.4981 -0.74207,0.742 -17.17862,2.7062 -17.55468,2.0976 -0.17802,-0.288 0.0328,-2.0616 0.46875,-3.9414 2.13449,-9.2045 -0.12278,-23.9046 -5.3086,-34.56642 -7.586,-15.59644 -23.05183,-27.60178 -40.09765,-31.12695 -19.98989,-4.13401 -39.64696,2.03395 -53.9375,16.92578 -10.01579,10.4372 -14.85512,21.82141 -15.66016,36.84379 -0.28902,5.393 -0.82277,9.8047 -1.1875,9.8047 -0.36465,0 -1.27945,0.2362 -2.0332,0.5254 -1.19055,0.4569 -1.3711,-0.5576 -1.3711,-7.7344 0,-19.359 3.47722,-30.61546 13.86328,-44.8848 3.88876,-5.34274 12.76035,-13.17982 17.83985,-15.75977 8.53659,-4.33583 21.34279,-7.52148 30.24414,-7.52148 z M 87.367188,946.7287 c 0.659465,0.0996 1.58719,1.38288 2.486328,3.48046 0.921728,2.15033 2.396925,4.13867 3.277343,4.41797 0.880419,0.28044 5.553328,0.41171 10.384761,0.29493 4.83145,-0.11691 9.07516,0.0775 9.43165,0.43164 0.35648,0.35429 -0.81538,2.06618 -2.60547,3.80468 -1.7901,1.73855 -4.41078,4.7631 -5.82422,6.72071 -1.41344,1.95764 -3.42251,3.81312 -4.46485,4.12304 -1.042325,0.30985 -2.871196,0.51971 -4.062496,0.4668 -1.191299,-0.053 -10.547788,-0.3266 -20.792968,-0.60742 -10.245181,-0.28086 -18.71978,-0.58835 -18.832032,-0.6836 -0.11227,-0.0952 -0.649557,-1.93998 -1.193359,-4.09961 -1.249735,-4.96316 -3.389684,-6.46874 -9.191406,-6.46874 -2.51483,-10e-6 -4.572266,-0.39067 -4.572266,-0.86719 0,-1.39567 9.349694,-1.0248 11.617188,0.46093 2.889237,1.89309 7.478253,0.67242 21.455078,-5.71093 6.350366,-2.9003 12.029665,-5.47995 12.621093,-5.73242 0.08242,-0.0352 0.171416,-0.0455 0.265626,-0.0312 z M 733.875,952.99023 c 3.36364,0.024 5.9834,0.12283 7.13867,0.3125 3.18902,0.52358 3.50689,0.83052 4.15625,4.01954 0.38672,1.89909 0.91777,4.48162 1.17969,5.73828 0.28679,1.37506 -0.0833,3.13692 -0.92773,4.42578 -1.56428,2.38734 -1.08235,4.714 1.0996,5.31445 0.78993,0.21736 3.67182,0.64831 6.4043,0.95899 2.73249,0.31063 5.13052,0.83039 5.33008,1.15429 0.47278,0.76808 -1.84402,15.37142 -3.00781,18.95899 -0.52158,1.60769 -1.69828,3.02407 -2.79688,3.36914 -2.49864,0.78463 -6.95852,5.55471 -8.36133,8.94141 -0.71697,1.7309 -1.93297,2.8909 -3.39062,3.2363 -1.25012,0.2962 -2.85748,1.0191 -3.57227,1.6055 -2.29871,1.8859 -13.56383,4.7729 -20.52734,5.2598 -3.71989,0.26 -11.23124,1.0352 -16.69141,1.7226 v 0 c -12.12956,1.5272 -18.19696,1.5508 -20.13476,0.078 -0.99893,-0.7592 -1.74843,-3.3173 -2.33985,-7.9863 -2.62786,-20.74587 -7.94141,-33.34328 -19.80078,-46.94145 -3.06988,-3.51995 -5.41749,-6.56493 -5.21679,-6.76563 0.20054,-0.2005 10.66702,-0.57672 23.25976,-0.83789 12.59271,-0.26097 24.8459,-0.83753 27.22852,-1.28125 4.08662,-0.76113 20.87979,-1.35334 30.9707,-1.28125 z m -126.12695,9.1836 c 3.80634,-0.0453 7.52688,0.4943 11.88672,1.60937 28.81893,7.37061 46.39308,35.31467 39.52148,62.8418 -2.92139,11.7029 -6.04052,17.1993 -14.86719,26.1914 -6.52146,6.6437 -16.6063,11.9523 -26.16601,13.7754 -7.51117,1.4325 -13.8353,1.396 -21.47071,-0.125 -19.00781,-3.7864 -34.97364,-19.5378 -39.82422,-39.291 -6.81006,-27.73306 10.30082,-55.76169 38.52149,-63.10353 4.69997,-1.22281 8.5921,-1.85319 12.39844,-1.89844 z m -558.611331,0.004 c 1.082041,0.12599 1.710987,1.31154 2.193359,3.88282 0.32386,1.72633 1.520146,4.06897 2.658203,5.20703 2.068933,2.06895 2.072505,2.07031 23.335938,2.07031 12.599421,0 21.265625,0.32912 21.265625,0.80859 0,0.44512 -1.025711,3.17391 -2.279297,6.06446 L 94.03125,985.4668 H 75.201172 c -17.738627,0 -18.962832,0.10531 -21.113281,1.79687 -1.255563,0.98763 -2.283203,2.19654 -2.283203,2.6875 -10e-7,0.49096 4.292968,9.4668 4.292968,9.4668 l -3.634765,-0.95508 h -7.642579 c -4.203303,0 -7.827953,-0.29902 -8.054687,-0.66601 -0.226723,-0.36685 -0.68982,-3.48634 -1.029297,-6.93165 l -0.617187,-6.26367 h 4.710937 c 6.544037,0 7.450285,-0.93712 8.535156,-8.82031 0.75569,-5.49124 0.685764,-7.19962 -0.394531,-9.78516 -1.122126,-2.68558 -1.132522,-3.19891 -0.07813,-3.60351 0.472622,-0.18136 0.88346,-0.25684 1.244141,-0.21485 z m 110.730471,0.25 c 17.28307,-0.22485 34.0622,8.14645 44.36133,23.54493 5.42714,8.11426 7.85097,15.69474 8.4707,26.49214 0.91047,15.8631 -3.9827,28.5242 -15.36133,39.752 -7.8188,7.7152 -16.48259,12.3875 -26.5332,14.3105 -17.92764,3.4302 -34.48246,-1.5969 -47.08985,-14.2988 -10.69962,-10.7798 -15.59375,-22.3635 -15.59375,-36.9023 0,-12.3701 3.32506,-22.55818 10.4375,-31.97854 4.02847,-5.33568 12.17779,-12.19495 17.98829,-15.13868 7.50342,-3.80139 15.46437,-5.67904 23.32031,-5.78125 z m -118.875002,6.15821 c 1.22952,0.069 2.366022,0.51487 2.841796,1.5625 0.951549,2.09522 0.758284,7.00646 -0.996093,8.0625 -1.754378,1.05604 -4.641625,1.21449 -5.605469,-0.57032 -0.963855,-1.78484 -1.324663,-7.44367 0.363281,-8.35937 0.843974,-0.45787 2.166964,-0.76436 3.396485,-0.69531 z m 567.666012,6.70508 c -9.93772,-0.3284 -22.24304,4.92718 -29.52539,12.79296 -17.24439,18.62602 -13.23629,47.30802 8.53125,61.04102 1.42504,0.8991 5.12858,2.5318 8.23047,3.627 22.51642,7.9497 47.50533,-7.8083 51.05469,-32.1954 1.87555,-12.8865 -1.86066,-24.02468 -11.18555,-33.34957 -7.20102,-7.20102 -14.35786,-10.55099 -25.15234,-11.77344 -0.63927,-0.0724 -1.29061,-0.12068 -1.95313,-0.14257 z m -447.9707,0.16015 c -5.61491,-0.0399 -11.165,1.31468 -17.33203,4.15039 -6.64277,3.0545 -14.8291,11.09056 -18.33399,17.9961 -4.96033,9.77314 -4.68888,25.68844 0.60938,35.69924 5.21175,9.8474 11.85678,15.4507 22.9707,19.373 18.4702,6.5185 39.44015,-2.6756 48.18164,-21.1269 2.62416,-5.5391 2.74219,-6.2543 2.74219,-16.6426 v -10.8535 l -3.45312,-6.80276 c -5.76113,-11.35034 -14.52988,-17.98044 -27.62305,-20.88281 -2.64281,-0.58583 -5.20949,-0.89204 -7.76172,-0.91016 z m -0.29492,3.95117 c 4.15733,0 5.01635,0.44634 4.32422,2.25 -0.4771,1.24332 -6.39142,1.74725 -7.5,0.63868 -1.68773,-1.68771 -0.36844,-2.88868 3.17578,-2.88868 z m 447.0625,0 c 4.15733,0 5.01636,0.44634 4.32422,2.25 -0.47709,1.24332 -6.39143,1.7453 -7.5,0.63672 -1.68771,-1.68771 -0.36844,-2.88672 3.17578,-2.88672 z m -458.58399,2.22071 c 0.12209,0.0116 0.21526,0.0473 0.27539,0.10742 1.28868,1.28867 0.32814,2.56782 -3.57812,4.76172 -2.27577,1.27812 -5.56976,3.71392 -7.32031,5.41406 -3.58942,3.48597 -3.26643,3.34154 -4.9961,2.24805 -1.06802,-0.67522 -0.7072,-1.41924 2.07032,-4.26368 3.30714,-3.38683 11.71755,-8.44172 13.54882,-8.26757 z m 447.07422,0.01 c 0.11832,0.009 0.20759,0.0396 0.26367,0.0957 1.28867,1.28866 0.32813,2.56781 -3.57812,4.76171 -2.27577,1.27813 -5.56979,3.71588 -7.32031,5.41602 -3.59535,3.49172 -3.98206,3.63381 -4.71094,1.73437 -0.32455,-0.8457 0.54276,-2.45365 2.30273,-4.26953 2.89485,-2.98672 11.26814,-7.87794 13.04297,-7.73828 z m 24.12696,0.0117 c 1.54487,-0.25276 8.27073,3.58791 12.15625,7.03711 2.70474,2.40098 3.66936,3.83274 3.27539,4.85938 -0.80852,2.10701 -1.64573,1.8291 -4.99024,-1.6543 -1.64217,-1.71035 -4.83808,-4.05613 -7.10156,-5.21289 -3.77964,-1.93164 -4.95253,-3.54549 -3.57617,-4.92188 0.0546,-0.0546 0.13333,-0.0906 0.23633,-0.10742 z m -446.24024,0.35742 c 2.0834,0 12.09627,6.73617 13.73828,9.24219 0.7009,1.06964 1.02231,2.35211 0.71485,2.84961 -0.96769,1.56574 -2.53856,0.87932 -5.13477,-2.24219 -1.38206,-1.66167 -4.40387,-3.97934 -6.71484,-5.15039 -4.19718,-2.12689 -5.62196,-4.69922 -2.60352,-4.69922 z m 433.73438,4.2793 c 0.47405,-0.0238 1.06305,0.0952 1.76171,0.36328 1.07173,0.41125 1.11681,0.91137 0.26758,2.9082 -1.63823,3.85217 -2.06706,3.94279 -3.07812,0.64844 -0.76419,-2.49009 -0.37333,-3.84855 1.04883,-3.91992 z m -446.34375,0.0527 c 1.4382,0 1.61525,0.41199 1.15625,2.70704 -0.29784,1.48913 -0.54102,3.04788 -0.54102,3.46484 0,1.90874 -1.53462,0.46267 -2.35937,-2.22461 -1.01798,-3.31691 -0.73949,-3.94727 1.74414,-3.94727 z m 436.18945,2.59766 c 0.93902,0 2.90774,7.66697 3.11523,12.13087 0.11426,2.4576 -0.18747,3.0604 -1.59179,3.1836 -1.71557,0.1506 -5.53091,-1.8572 -10.45117,-5.50197 l -2.54493,-1.88672 2.50782,-2.62304 c 2.35574,-2.46569 7.15142,-5.30274 8.96484,-5.30274 z m 21.45508,0 c 1.65275,0 8.92824,5.00252 9.89062,6.80078 0.81642,1.52546 0.28921,2.11722 -4.68359,5.25779 -6.27867,3.9654 -6.71404,4.0801 -8.27344,2.2012 -0.90746,-1.0934 -0.81732,-2.5069 0.5,-7.79688 0.88502,-3.55404 2.04037,-6.46289 2.56641,-6.46289 z m -447.1211,0.002 c 1.69938,0 8.96897,4.9672 9.94922,6.79883 0.81641,1.52546 0.28921,2.11722 -4.68359,5.25774 -7.28802,4.6028 -9.10938,4.6428 -9.10938,0.2012 0,-3.52459 2.73871,-12.25777 3.84375,-12.25777 z m -22.04687,0.37891 c 0.40215,-0.0326 0.70731,0.0394 0.8789,0.23828 1.09913,1.27408 3.65375,12.36018 3.1504,13.67188 -0.27543,0.7177 -1.19606,1.2688 -2.04493,1.2246 -2.18053,-0.1134 -12.36038,-6.21246 -12.36718,-7.41015 -0.0133,-2.18208 7.56773,-7.49639 10.38281,-7.72461 z m 370.75781,0.0937 c 1.59908,-0.004 2.50407,0.009 2.54688,0.043 1.03956,0.83376 -3.95288,5.59718 -7.4336,7.0918 -3.99239,1.71499 -5.59909,1.77449 -45.10547,1.67773 -22.5312,-0.0552 -41.14848,-0.28325 -41.37109,-0.50586 -0.22261,-0.22265 -0.40625,-1.89988 -0.40625,-3.72656 v -3.32031 l 16.24609,-0.0645 c 8.93473,-0.0353 30.08547,-0.36467 47.00196,-0.73242 12.68733,-0.27564 23.72423,-0.4505 28.52148,-0.46289 z m -96.09961,1.10352 v 3.57031 c 0,2.09911 -0.44736,3.70978 -1.08398,3.9082 -0.59566,0.18569 -36.41833,0.52852 -79.60547,0.76172 l -78.52149,0.42383 -1.01171,-2.21875 c -0.64847,-1.42322 -0.71251,-2.51992 -0.17774,-3.05469 0.50366,-0.50366 23.78198,-1.11476 58.74024,-1.54101 31.84819,-0.38831 67.75107,-0.96289 79.7832,-1.27735 z m -366.505858,1.02148 h 14.363282 c 13.268768,0 22.953378,-1.07061 22.546875,0.33008 -2.934852,11.59938 -4.664664,18.83228 -4.833985,30.53318 l -9.099609,0.2165 c -4.569895,-0.1659 -7.628112,-1.1498 -7.828125,-2.5195 -0.106942,-0.7322 -1.797806,-3.952 -3.757812,-7.1543 -1.960007,-3.2023 -5.324281,-9.3278 -7.476563,-13.61329 z m 71.105468,8.66406 c 1.45917,0 1.74332,1.781 0.82813,5.1797 -0.88181,3.2748 -2.71544,4.5425 -3.86914,2.6758 -0.6148,-0.9948 2.04121,-7.8555 3.04101,-7.8555 z m 447.07227,0.1113 c 0.24216,0.011 0.51402,0.1361 0.84375,0.3399 1.15241,0.7122 0.50736,5.2212 -1.00782,7.0469 -2.35876,2.8422 -3.53574,0.8645 -2.05273,-3.4493 1.02331,-2.9765 1.49031,-3.9705 2.2168,-3.9375 z m 63.26562,0.1016 c 1.44435,-0.2981 4.64285,6.2668 3.75391,7.7051 -0.25387,0.4109 -1.00981,0.7461 -1.67969,0.7461 -2.6231,0 -4.5709,-7.9359 -2.07422,-8.4512 z m -447.18554,0.2422 c 0.81411,-0.09 1.48032,0.6791 2.26562,2.5586 0.68843,1.6477 1.25195,3.5941 1.25195,4.3242 0,2.0427 -2.55026,1.5711 -3.37109,-0.623 -1.8114,-4.8421 -1.87755,-5.6436 -0.50586,-6.17 0.12308,-0.047 0.24307,-0.077 0.35938,-0.09 z m -146.396489,2.0195 c 2.084837,-1.7451 8.566888,0.3758 11.220703,3.4239 2.653816,3.0481 4.54524,9.2028 1.970703,12.4863 -1.282642,1.6358 -8.437181,0.6406 -8.839844,0.6406 -1.200234,0 -4.701107,-8.7249 -5.306641,-11.5019 -0.605534,-2.777 -1.129758,-3.3038 0.955079,-5.0489 z m 587.937499,1.8574 c 1.23371,0 2.33497,2.3994 1.62695,3.545 -0.26793,0.4337 -1.89834,0.7871 -3.62109,0.7871 h -3.13086 l 2.03516,-2.166 c 1.11919,-1.1913 2.50912,-2.1661 3.08984,-2.1661 z m -51.39258,0.029 c 1.1585,0.031 4.98242,2.942 4.98242,3.793 0,0.2811 -1.60151,0.5098 -3.55859,0.5098 -2.88877,0 -3.46014,-0.2566 -3.0332,-1.3692 0.28932,-0.7537 0.52734,-1.7284 0.52734,-2.166 0,-0.4375 0.48638,-0.7827 1.08203,-0.7676 z m -447.02734,0.045 c 0.82334,-0.01 1.89905,0.6911 3.21484,2.0918 l 2.03321,2.166 h -3.61524 c -3.62852,0 -4.0673,-0.4189 -3.0918,-2.961 0.32963,-0.859 0.81861,-1.2915 1.45899,-1.2968 z m 50.98633,0.1328 c 0.44975,0 0.75943,0.3704 1.29687,1.1054 0.62009,0.8481 0.92104,1.875 0.66992,2.2813 -0.6059,0.9819 -6.41992,0.9576 -6.41992,-0.025 0,-0.4217 1.03982,-1.4487 2.31055,-2.2812 1.10139,-0.7225 1.69282,-1.0836 2.14258,-1.0801 z m 8.78515,11.0566 c 1.55851,0 1.68343,0.4159 1.24414,4.125 -0.26863,2.2682 -1.54439,6.5558 -2.83398,9.5293 -2.18459,5.0373 -3.89737,6.565 -5.12891,4.5723 -0.28346,-0.4587 0.49524,-2.828 1.73047,-5.2656 1.23523,-2.4377 2.47221,-6.3519 2.75,-8.6973 0.41671,-3.5185 0.80859,-4.2637 2.23828,-4.2637 z m 378.60743,0.1152 c 0.12284,0 0.25892,0.02 0.4082,0.049 1.05199,0.2026 1.68053,1.4629 2.08203,4.1777 0.31635,2.1388 1.39338,5.7732 2.39258,8.0762 0.99919,2.3029 1.8164,4.7407 1.8164,5.416 0,1.8602 -2.03111,1.4679 -3.35156,-0.6465 -1.93822,-3.1036 -4.44531,-11.1986 -4.44531,-14.3535 0,-2.0529 0.23775,-2.7346 1.09766,-2.7188 z m -447.08008,0 c 0.12686,-3e-4 0.26712,0.015 0.42382,0.045 1.09447,0.2108 1.68627,1.5375 2.16407,4.8574 0.36152,2.5121 1.43788,6.0994 2.39258,7.9707 0.95469,1.8714 1.73632,3.7665 1.73632,4.211 0,0.4445 -0.6114,1.042 -1.35742,1.3281 -1.9756,0.7581 -6.43945,-9.4166 -6.43945,-14.6758 0,-2.9005 0.19201,-3.7345 1.08008,-3.7363 z m 516,0.029 c 1.98827,0.3605 1.23151,6.6335 -1.70118,12.9961 -2.54399,5.5192 -4.24338,7.0924 -5.48828,5.0781 -0.28588,-0.4625 0.14613,-2.1209 0.95899,-3.6836 0.81286,-1.5627 2.12075,-5.374 2.90625,-8.4707 0.97651,-3.8496 1.88951,-5.7197 2.88867,-5.9121 0.15711,-0.03 0.303,-0.032 0.43555,-0.01 z m -510.41407,0.4492 6.68165,0.5059 c 6.37427,0.4821 9.17773,1.5365 9.17773,3.4512 0,0.481 -1.36343,2.1593 -3.0293,3.7304 -1.66588,1.5711 -4.18345,3.6799 -5.5957,4.6856 l -2.56836,1.8281 -1.74414,-3.4199 c -0.95966,-1.8811 -2.01031,-5.0756 -2.33399,-7.0996 z m 57.58399,0.2718 -0.60938,2.8145 c -0.33574,1.5487 -1.29012,4.5529 -2.11914,6.6757 -0.829,2.1229 -1.86541,3.9807 -2.30468,4.127 -0.43928,0.1464 -3.04721,-1.7385 -5.79493,-4.1875 -7.74536,-6.9033 -6.09811,-9.2289 6.64453,-9.3809 z m 389.55078,0 h 4.64453 c 6.34488,0.01 11.14598,1.4236 11.13086,3.2852 -0.006,0.8115 -2.05118,3.2544 -4.54687,5.4277 -6.6525,5.7931 -6.52677,5.7703 -8.38868,1.5273 -0.9041,-2.0603 -1.91336,-5.2071 -2.24218,-6.9941 z m 56.50781,0 v 2.9219 c 0,1.6072 -0.79813,4.7267 -1.77343,6.9316 -0.97535,2.2049 -2.04757,3.9977 -2.38282,3.9863 -0.33509,-0.012 -2.89565,-2.0671 -5.6914,-4.5683 -7.56012,-6.7639 -6.32175,-8.908 5.29882,-9.1699 z m -28.12695,12.2598 c 0.17815,-0.014 0.36515,0 0.56445,0.025 2.64669,0.3871 7.8247,12.5084 5.8711,13.7441 -1.86958,1.1824 -10.68563,1.0003 -12.25977,-0.2539 -1.21357,-0.9669 -1.04526,-1.7641 1.56836,-7.4258 2.15824,-4.6752 3.00878,-5.9902 4.25586,-6.0898 z m -446.81641,0 c 0.13231,10e-4 0.26646,0.011 0.4043,0.031 1.36514,0.1967 2.29349,1.4409 3.43164,4.6015 0.85799,2.3826 2.01954,5.2348 2.58203,6.3379 0.82629,1.6205 0.78129,2.159 -0.23633,2.8028 -1.63887,1.0366 -10.42004,1.0309 -12.0625,-0.01 -1.10562,-0.6992 -1.06212,-1.4053 0.32813,-5.4023 2.1608,-6.2124 3.56809,-8.3785 5.55273,-8.3633 z m 434.41602,3.0762 -0.62109,2.9434 c -0.79114,3.7477 -1.37711,4.3402 -3.25391,3.2812 -2.14647,-1.2111 -1.89999,-2.1118 1.17969,-4.3047 z m 25.50976,0.2559 c 0.93891,0 5.48829,3.6153 5.48829,4.3613 0,1.2995 -3.2811,2.7051 -3.91602,1.6777 -0.87303,-1.4125 -2.07721,-6.039 -1.57227,-6.039 z m -446.90039,0.2011 c 0.47486,-0.01 1.43228,0.7038 2.86524,2.1367 2.64382,2.6439 2.65486,2.6963 0.85742,3.6582 -1.63615,0.8757 -1.96,0.6494 -3.1543,-2.2089 -0.99352,-2.3779 -1.17889,-3.5764 -0.56836,-3.586 z m -26.20507,0.1094 c 0.35143,0.079 0.25179,0.7638 -0.0996,2.4297 -0.81079,3.8436 -1.49619,4.4335 -3.47266,2.9883 -1.42932,-1.0452 -1.4925,-1.4032 -0.45898,-2.6485 0.6576,-0.7923 1.94896,-1.8434 2.86914,-2.3359 0.57821,-0.3095 0.95124,-0.4808 1.16211,-0.4336 z m 35.30859,7.1855 c 0.12153,0.01 0.23457,0.028 0.33789,0.064 1.94889,0.6872 1.13709,2.8293 -1.73437,4.5801 -3.51295,2.1418 -4.11524,2.1484 -4.11524,0.049 0,-1.773 3.68876,-4.8019 5.51172,-4.6934 z m 403.0332,0.062 c 0.67716,0.031 1.54707,0.4631 2.81836,1.3516 1.51106,1.056 2.75416,2.3856 2.76172,2.9531 0.0268,1.844 -1.3524,1.9435 -4.06641,0.293 -3.37322,-2.0514 -3.98442,-3.0568 -2.57031,-4.2305 0.31289,-0.2596 0.65035,-0.3856 1.05664,-0.3672 z m -447.54101,0.043 c 2.3965,-0.1282 6.50075,3.0297 5.77539,4.9199 -0.74852,1.9507 -1.92014,1.6656 -5.10352,-1.2441 -2.30766,-2.1092 -2.59802,-2.7383 -1.57617,-3.4063 0.25351,-0.1657 0.56194,-0.2512 0.9043,-0.2695 z m 491.60937,0.1973 c 2.57734,0 2.13642,1.5742 -1.0625,3.791 -3.90622,2.707 -4.48828,2.7903 -4.48828,0.6406 0,-1.7249 3.39059,-4.4316 5.55078,-4.4316 z m -469.50781,7.2637 c 7.35174,0 9.96484,0.2813 9.96484,1.0742 0,0.591 -0.68366,1.268 -1.51757,1.5039 -2.34356,0.6628 -10.07726,1.3739 -11.04688,1.0156 -0.47652,-0.176 -2.32829,-0.5643 -4.11523,-0.8633 -1.78695,-0.2989 -3.24805,-1.0351 -3.24805,-1.6367 0,-0.8174 2.5175,-1.0937 9.96289,-1.0937 z m 444.24023,0.1386 c 5.82758,-0.036 13.06782,0.1493 13.27735,0.4883 0.23342,0.3777 -0.34034,1.0953 -1.27539,1.5957 -2.65837,1.4229 -15.8887,1.1558 -17.89453,-0.3613 -0.92508,-0.6996 -1.48616,-1.3309 -1.24805,-1.4024 0.65613,-0.1969 3.64408,-0.2984 7.14062,-0.3203 z"
       transform="scale(0.26458333)"
       id="path886"
       inkscape:connector-curvature="0"
       sodipodi:nodetypes="cscccccsccccccccsccscscccccscccccccscccccccscccccccccssccccscccccsccccccccscccccccccccccccccsccccccsccscscsccsscccccsccccccsccccccccsccscscccccsccccccccccccccssccscccccsssccccccccccscccsccccccccscccccccccscccccscccccscccccsccccsccccccscscssccccsccccccccccccsccsccccscccsccscccccscscccccccccccccssccssccssccccccccccccccccccsccscscsccccccccccccccccssccccccccccsscsscccsaaaaccscccscccccccccccccssscscccsccccccccccccccsscccsccscsccscccccccccccccccccccccccscccccscscccscccssscscsccscccccccccccscsccccscccccccccccccccccccccsccscccccccscssccccscsccsccscscccsssccccsscsccscscccsccscscccscccccccssccccccccccccccccccsccsccsccscsscccscsscsscssscssssscssscssscscccscsscscssccsscccssccsscccccsccscsssssscscscccccscscsscccscccccccsccccczzsszzscsccsccscsccscscccccsccccccscccccsccccccccsscccccccccccccccccscccccccscccccccccccscsccccccccccccccsccccscccsscsscsssccccssccccccccsccccssccsscssccccsscccccccc" />
  </g>
</svg>
