<svg viewBox="0 0 12.7 12.7" xmlns="http://www.w3.org/2000/svg"><g clip-path="url(#a)" style="fill:#000" transform="translate(0 1.803)"><path style="color:#000;stroke-width:4;stroke-linecap:round;stroke-linejoin:bevel;-inkscape-stroke:none;paint-order:fill markers stroke" d="M24 0C10.745 0 0 10.745 0 24c0 3.715 2.35 10.371 2.35 10.371h43.378S48 27.65 48 24C48 10.745 37.255 0 24 0zm7.791 1.72c.111 0 .224.02.334.065l1.668.688c.44.18.648.68.467 1.119l-7.615 18.496a3.264 3.264 0 1 1-3.276-1.287l7.637-18.55a.856.856 0 0 1 .785-.53zM23.369 20.8c-15.579-13.866-7.79-6.933 0 0zm.443-17.563a1.367 1.367 0 0 1 1.383 1.357l.04 3.785a1.369 1.369 0 0 1-1.358 1.385 1.369 1.369 0 0 1-1.385-1.357l-.037-3.785a1.369 1.369 0 0 1 1.357-1.385zM9.685 9.784c.329 0 .66.12.922.359l2.797 2.55c.561.512.602 1.375.09 1.936a1.369 1.369 0 0 1-1.937.09L8.76 12.17a1.369 1.369 0 0 1 .925-2.385zm28.63.236a1.37 1.37 0 0 1 .926 2.385l-2.798 2.55a1.37 1.37 0 0 1-1.937-.09 1.367 1.367 0 0 1 .09-1.935l2.797-2.55c.263-.24.593-.36.921-.36zM4.606 22.612h3.786c.759 0 1.37.612 1.37 1.371 0 .76-.611 1.37-1.37 1.37H4.607c-.759 0-1.37-.61-1.37-1.37 0-.76.611-1.371 1.37-1.371zm35 .236h3.786c.759 0 1.37.61 1.37 1.37 0 .759-.611 1.37-1.37 1.37h-3.786c-.759 0-1.37-.611-1.37-1.37 0-.76.611-1.37 1.37-1.37z" transform="scale(.26458)"/></g></svg>