<svg viewBox="0 0 12.7 12.7" xmlns="http://www.w3.org/2000/svg"><path style="color:#000;fill:#000;-inkscape-stroke:none;stroke:none;fill-opacity:1" d="M4.63 0A4.643 4.643 0 0 0 0 4.63a4.642 4.642 0 0 0 4.63 4.63c.9 0 1.739-.26 2.45-.707a.898.898 0 0 0 .113.142c1.27 1.223 2.54 2.554 3.957 3.74a.898.898 0 0 0 1.264-.113.898.898 0 0 0-.111-1.263C10.989 9.96 9.745 8.66 8.439 7.402a.898.898 0 0 0-.07-.05c.56-.765.89-1.706.89-2.721A4.642 4.642 0 0 0 4.632 0zm0 1.59a3.028 3.028 0 0 1 3.04 3.04c0 1.69-1.35 3.04-3.04 3.04a3.028 3.028 0 0 1-3.04-3.04 3.03 3.03 0 0 1 3.04-3.04z"/></svg>