<svg viewBox="0 0 12.7 12.7" xmlns="http://www.w3.org/2000/svg"><path style="fill:#000;fill-opacity:1;stroke:none;paint-order:fill markers stroke" d="M12.549 0a.095.095 0 0 0-.037.01L3.029 3.977l-.002.003-.006.002a.157.157 0 0 0-.05.047l-.01.012-.006.014a.29.29 0 0 0-.033.113.39.39 0 0 0-.004.041v6.133c-.25 0-.508.024-.764.07-1.239.227-2.14.905-2.013 1.516.125.61 1.232.923 2.472.697.924-.167 2-.755 2.026-1.223V5.955l6.34-2.652v4.713a4.45 4.45 0 0 0-.762.07c-1.24.226-2.141.905-2.014 1.516.128.61 1.234.92 2.473.695 1.157-.212 2.033-.823 2.023-1.41 0-3.157.003-5.717-.002-8.63a.409.409 0 0 0-.006-.087c-.014-.078-.052-.138-.101-.16a.104.104 0 0 0-.041-.01z"/></svg>