<svg viewBox="0 0 12.7 12.7" xmlns="http://www.w3.org/2000/svg"><path d="M9.74 2.848c-.03 0-.06.007-.088.023a.18.18 0 0 0-.09.154v.737H6.564l-.148.16-1.361 1.467c.655.47 0 0 0 0L3.533 3.75H0v1.738h2.68l1.14 1.229c.296-.502 0 0 0 0L2.68 7.945H0v1.739h3.533l1.522-1.64c-.588-.42 0 0 0 0l1.361 1.468.148.16h2.998v.736a.18.18 0 0 0 .178.178c.03 0 .06-.008.088-.023l2.783-1.608a.178.178 0 0 0 0-.307L9.828 7.041a.178.178 0 0 0-.266.154v.739H7.416L6.287 6.717c-.095.162 0 0 0 0L7.416 5.5h2.146v.738c0 .135.15.222.266.155l2.783-1.608a.178.178 0 0 0 0-.306L9.828 2.87a.175.175 0 0 0-.088-.023z"/></svg>