<svg viewBox="0 0 12.7 12.7" xmlns="http://www.w3.org/2000/svg"><path style="color:#000;fill:#000;stroke:none;stroke-width:.262717;stroke-linecap:butt;stroke-linejoin:miter;-inkscape-stroke:none" d="M5.399 1.948c-.12 0-.24.055-.347.164-.611.663-1.12 1.213-1.55 1.7H1.018a.887.887 0 0 0-.887.887v3.3c0 .489.397.886.887.886h2.393c.444.483.98 1.032 1.631 1.7.46.473 1.038-.113 1.039-1.054l.008-6.357c0-.436-.13-.841-.344-1.06a.49.49 0 0 0-.346-.166z"/><path style="color:#000;fill:#000;stroke:none;stroke-linecap:butt;stroke-linejoin:miter;-inkscape-stroke:none" d="M10.19 2.121a.5.5 0 0 0-.5.5v5.852l-1.098-1.59a.5.5 0 0 0-.696-.13.5.5 0 0 0-.126.696l2.01 2.914a.5.5 0 0 0 .03.006.5.5 0 0 0 .07.08.5.5 0 0 0 .026.041.5.5 0 0 0 .147.032.5.5 0 0 0 .136.056.5.5 0 0 0 .043-.017.5.5 0 0 0 .18-.075.5.5 0 0 0 .012-.006.5.5 0 0 0 .05.01.5.5 0 0 0 .05-.05.5.5 0 0 0 .029-.03.5.5 0 0 0 .035-.037.5.5 0 0 0 .014-.01l.007-.013 2.002-2.9a.5.5 0 0 0-.127-.696.5.5 0 0 0-.695.129l-1.1 1.594V2.62a.5.5 0 0 0-.5-.5z"/></svg>