<svg viewBox="0 0 48 48" xmlns="http://www.w3.org/2000/svg"><path d="M151.53 181.42a3.985 3.985 0 0 1-2.363-1.198 3.914 3.914 0 0 1-1.136-2.6c-.1-1.941 1.195-3.65 3.127-4.123.258-.063.395-.075.857-.077.74-.003 1.234.104 1.792.385 1.37.69 2.197 1.96 2.256 3.462.058 1.496-.677 2.843-1.983 3.63-.728.44-1.668.632-2.55.52zm-4.172-9.02c-.178-.089-1.743-1.654-1.828-1.829-.056-.115-.063-.185-.054-.533.009-.331.023-.424.079-.532.08-.153.7-.76 1.142-1.12a8.847 8.847 0 0 1 3.475-1.689c.674-.153 1.074-.194 1.892-.194s1.217.041 1.891.194c1.222.278 2.5.9 3.475 1.69.5.405 1.087.99 1.149 1.144.068.171.099.828.045.993-.05.16-1.661 1.783-1.86 1.877a.942.942 0 0 1-.676.005c-.077-.035-.217-.156-.34-.294a5.317 5.317 0 0 0-1.138-.933 4.945 4.945 0 0 0-5.728.451 5.685 5.685 0 0 0-.504.482c-.123.138-.262.259-.34.294-.18.082-.509.08-.68-.006zm-4.705-4.683c-.17-.086-1.832-1.765-1.874-1.892-.02-.06-.03-.273-.024-.491.008-.315.023-.41.078-.516.13-.251 1.32-1.355 2.098-1.946 1.24-.944 2.918-1.818 4.42-2.303 3.377-1.092 7.06-.975 10.323.327 1.211.483 2.539 1.228 3.522 1.976.778.591 1.968 1.695 2.098 1.946.055.106.07.201.078.516.006.218-.005.432-.024.49-.045.139-1.742 1.84-1.9 1.907-.147.061-.458.06-.617-.004-.085-.034-.234-.166-.454-.403-1.158-1.243-2.838-2.307-4.57-2.896-1.261-.428-2.373-.609-3.744-.609s-2.482.181-3.743.61c-1.733.588-3.412 1.652-4.57 2.895-.22.237-.37.369-.455.403-.17.068-.499.063-.642-.01zm-4.738-4.757c-.187-.085-1.773-1.691-1.823-1.846-.022-.07-.033-.27-.026-.501.008-.315.023-.41.078-.516.099-.191 1.122-1.176 1.885-1.814a21.744 21.744 0 0 1 10.898-4.877c1.227-.176 1.563-.197 3.137-.197s1.91.021 3.136.197a21.742 21.742 0 0 1 10.898 4.877c.763.638 1.786 1.623 1.886 1.814.054.105.069.201.077.516.006.231-.005.432-.026.5-.053.166-1.638 1.764-1.834 1.85a.956.956 0 0 1-.68-.005c-.09-.04-.328-.248-.662-.574-1.42-1.389-2.82-2.395-4.55-3.271-2.138-1.084-4.257-1.681-6.79-1.915-.946-.088-2.645-.047-3.736.088a18.05 18.05 0 0 0-5.966 1.827c-1.73.876-3.129 1.882-4.549 3.27-.334.327-.573.534-.663.575a.998.998 0 0 1-.69.002z" style="fill:#000;fill-opacity:1" transform="translate(-199.74 -222.21) scale(1.4714)"/><path style="color:#000;fill:#000;stroke-linecap:round;stroke-linejoin:round;-inkscape-stroke:none;stroke:none;fill-opacity:1" d="M3 0A3 3 0 0 0 .879.879a3 3 0 0 0 0 4.242l42 42a3 3 0 0 0 4.242 0 3 3 0 0 0 0-4.242l-42-42A3 3 0 0 0 3 0z"/></svg>